<?xml version="1.0" standalone="no"?>
<svg xmlns="http://www.w3.org/2000/svg" width="500" height="500"><defs><clipPath id="clip-path-dot-color"><path d="M 28 124v 12h 6a 6 6, 0, 0, 0, 0 -12" transform="rotate(180,34,130)"/><path d="M 28 160v 12h 6a 6 6, 0, 0, 0, 0 -12" transform="rotate(-90,34,166)"/><path d="M 28 172v 12h 12v -6a 6 6, 0, 0, 0, -6 -6" transform="rotate(180,34,178)"/><path d="M 28 196v 12h 6a 6 6, 0, 0, 0, 0 -12" transform="rotate(180,34,202)"/><circle cx="34" cy="226" r="6" transform="rotate(0,34,226)"/><path d="M 28 256v 12h 6a 6 6, 0, 0, 0, 0 -12" transform="rotate(180,34,262)"/><path d="M 28 328v 12h 6a 6 6, 0, 0, 0, 0 -12" transform="rotate(-90,34,334)"/><path d="M 28 340v 12h 6a 6 6, 0, 0, 0, 0 -12" transform="rotate(90,34,346)"/><circle cx="34" cy="370" r="6" transform="rotate(0,34,370)"/><path d="M 40 124v 12h 12v -6a 6 6, 0, 0, 0, -6 -6" transform="rotate(0,46,130)"/><path d="M 40 136v 12h 12v -6a 6 6, 0, 0, 0, -6 -6" transform="rotate(180,46,142)"/><rect x="40" y="172" width="12" height="12" transform="rotate(0,46,178)"/><rect x="40" y="184" width="12" height="12" transform="rotate(0,46,190)"/><rect x="40" y="196" width="12" height="12" transform="rotate(0,46,202)"/><path d="M 40 232v 12h 6a 6 6, 0, 0, 0, 0 -12" transform="rotate(-90,46,238)"/><rect x="40" y="244" width="12" height="12" transform="rotate(0,46,250)"/><rect x="40" y="256" width="12" height="12" transform="rotate(0,46,262)"/><path d="M 40 268v 12h 12v -6a 6 6, 0, 0, 0, -6 -6" transform="rotate(180,46,274)"/><rect x="52" y="136" width="12" height="12" transform="rotate(0,58,142)"/><path d="M 52 148v 12h 12v -6a 6 6, 0, 0, 0, -6 -6" transform="rotate(180,58,154)"/><path d="M 52 172v 12h 12v -6a 6 6, 0, 0, 0, -6 -6" transform="rotate(0,58,178)"/><rect x="52" y="184" width="12" height="12" transform="rotate(0,58,190)"/><rect x="52" y="196" width="12" height="12" transform="rotate(0,58,202)"/><path d="M 52 208v 12h 12v -6a 6 6, 0, 0, 0, -6 -6" transform="rotate(180,58,214)"/><path d="M 52 256v 12h 12v -6a 6 6, 0, 0, 0, -6 -6" transform="rotate(0,58,262)"/><rect x="52" y="268" width="12" height="12" transform="rotate(0,58,274)"/><rect x="52" y="280" width="12" height="12" transform="rotate(0,58,286)"/><path d="M 52 292v 12h 12v -6a 6 6, 0, 0, 0, -6 -6" transform="rotate(180,58,298)"/><circle cx="58" cy="346" r="6" transform="rotate(0,58,346)"/><path d="M 64 136v 12h 12v -6a 6 6, 0, 0, 0, -6 -6" transform="rotate(0,70,142)"/><rect x="64" y="148" width="12" height="12" transform="rotate(0,70,154)"/><rect x="64" y="184" width="12" height="12" transform="rotate(0,70,190)"/><rect x="64" y="196" width="12" height="12" transform="rotate(0,70,202)"/><rect x="64" y="208" width="12" height="12" transform="rotate(0,70,214)"/><path d="M 64 220v 12h 12v -6a 6 6, 0, 0, 0, -6 -6" transform="rotate(180,70,226)"/><path d="M 64 280v 12h 12v -6a 6 6, 0, 0, 0, -6 -6" transform="rotate(0,70,286)"/><rect x="64" y="292" width="12" height="12" transform="rotate(0,70,298)"/><path d="M 64 304v 12h 12v -6a 6 6, 0, 0, 0, -6 -6" transform="rotate(180,70,310)"/><circle cx="70" cy="334" r="6" transform="rotate(0,70,334)"/><circle cx="70" cy="370" r="6" transform="rotate(0,70,370)"/><rect x="76" y="148" width="12" height="12" transform="rotate(0,82,154)"/><path d="M 76 160v 12h 6a 6 6, 0, 0, 0, 0 -12" transform="rotate(90,82,166)"/><path d="M 76 184v 12h 6a 6 6, 0, 0, 0, 0 -12" transform="rotate(0,82,190)"/><path d="M 76 220v 12h 6a 6 6, 0, 0, 0, 0 -12" transform="rotate(0,82,226)"/><path d="M 76 244v 12h 6a 6 6, 0, 0, 0, 0 -12" transform="rotate(180,82,250)"/><path d="M 76 304v 12h 6a 6 6, 0, 0, 0, 0 -12" transform="rotate(0,82,310)"/><rect x="88" y="148" width="12" height="12" transform="rotate(0,94,154)"/><path d="M 88 196v 12h 6a 6 6, 0, 0, 0, 0 -12" transform="rotate(180,94,202)"/><path d="M 88 232v 12h 6a 6 6, 0, 0, 0, 0 -12" transform="rotate(-90,94,238)"/><rect x="88" y="244" width="12" height="12" transform="rotate(0,94,250)"/><path d="M 88 268v 12h 6a 6 6, 0, 0, 0, 0 -12" transform="rotate(180,94,274)"/><path d="M 88 292v 12h 6a 6 6, 0, 0, 0, 0 -12" transform="rotate(180,94,298)"/><path d="M 88 340v 12h 6a 6 6, 0, 0, 0, 0 -12" transform="rotate(180,94,346)"/><path d="M 88 364v 12h 6a 6 6, 0, 0, 0, 0 -12" transform="rotate(180,94,370)"/><circle cx="106" cy="130" r="6" transform="rotate(0,106,130)"/><rect x="100" y="148" width="12" height="12" transform="rotate(0,106,154)"/><circle cx="106" cy="178" r="6" transform="rotate(0,106,178)"/><rect x="100" y="196" width="12" height="12" transform="rotate(0,106,202)"/><path d="M 100 220v 12h 6a 6 6, 0, 0, 0, 0 -12" transform="rotate(180,106,226)"/><path d="M 100 244v 12h 6a 6 6, 0, 0, 0, 0 -12" transform="rotate(0,106,250)"/><path d="M 100 268v 12h 6a 6 6, 0, 0, 0, 0 -12" transform="rotate(0,106,274)"/><rect x="100" y="292" width="12" height="12" transform="rotate(0,106,298)"/><path d="M 100 316v 12h 6a 6 6, 0, 0, 0, 0 -12" transform="rotate(180,106,322)"/><path d="M 100 340v 12h 6a 6 6, 0, 0, 0, 0 -12" transform="rotate(0,106,346)"/><rect x="100" y="364" width="12" height="12" transform="rotate(0,106,370)"/><rect x="112" y="148" width="12" height="12" transform="rotate(0,118,154)"/><rect x="112" y="196" width="12" height="12" transform="rotate(0,118,202)"/><rect x="112" y="208" width="12" height="12" transform="rotate(0,118,214)"/><rect x="112" y="220" width="12" height="12" transform="rotate(0,118,226)"/><path d="M 112 232v 12h 6a 6 6, 0, 0, 0, 0 -12" transform="rotate(90,118,238)"/><circle cx="118" cy="262" r="6" transform="rotate(0,118,262)"/><rect x="112" y="292" width="12" height="12" transform="rotate(0,118,298)"/><rect x="112" y="316" width="12" height="12" transform="rotate(0,118,322)"/><path d="M 112 352v 12h 6a 6 6, 0, 0, 0, 0 -12" transform="rotate(-90,118,358)"/><path d="M 112 364v 12h 12v -6a 6 6, 0, 0, 0, -6 -6" transform="rotate(90,118,370)"/><circle cx="130" cy="46" r="6" transform="rotate(0,130,46)"/><path d="M 124 100v 12h 6a 6 6, 0, 0, 0, 0 -12" transform="rotate(-90,130,106)"/><rect x="124" y="112" width="12" height="12" transform="rotate(0,130,118)"/><path d="M 124 124v 12h 6a 6 6, 0, 0, 0, 0 -12" transform="rotate(90,130,130)"/><rect x="124" y="148" width="12" height="12" transform="rotate(0,130,154)"/><rect x="124" y="160" width="12" height="12" transform="rotate(0,130,166)"/><rect x="124" y="172" width="12" height="12" transform="rotate(0,130,178)"/><rect x="124" y="184" width="12" height="12" transform="rotate(0,130,190)"/><path d="M 124 196v 12h 12v -6a 6 6, 0, 0, 0, -6 -6" transform="rotate(90,130,202)"/><circle cx="130" cy="250" r="6" transform="rotate(0,130,250)"/><path d="M 124 280v 12h 6a 6 6, 0, 0, 0, 0 -12" transform="rotate(-90,130,286)"/><rect x="124" y="292" width="12" height="12" transform="rotate(0,130,298)"/><rect x="124" y="304" width="12" height="12" transform="rotate(0,130,310)"/><rect x="124" y="316" width="12" height="12" transform="rotate(0,130,322)"/><rect x="124" y="328" width="12" height="12" transform="rotate(0,130,334)"/><path d="M 124 340v 12h 12v -6a 6 6, 0, 0, 0, -6 -6" transform="rotate(180,130,346)"/><path d="M 124 376v 12h 6a 6 6, 0, 0, 0, 0 -12" transform="rotate(180,130,382)"/><path d="M 124 448v 12h 12v -6a 6 6, 0, 0, 0, -6 -6" transform="rotate(-90,130,454)"/><path d="M 124 460v 12h 6a 6 6, 0, 0, 0, 0 -12" transform="rotate(90,130,466)"/><circle cx="142" cy="34" r="6" transform="rotate(0,142,34)"/><circle cx="142" cy="58" r="6" transform="rotate(0,142,58)"/><circle cx="142" cy="82" r="6" transform="rotate(0,142,82)"/><path d="M 136 112v 12h 6a 6 6, 0, 0, 0, 0 -12" transform="rotate(0,142,118)"/><rect x="136" y="148" width="12" height="12" transform="rotate(0,142,154)"/><path d="M 136 184v 12h 6a 6 6, 0, 0, 0, 0 -12" transform="rotate(0,142,190)"/><path d="M 136 256v 12h 6a 6 6, 0, 0, 0, 0 -12" transform="rotate(-90,142,262)"/><path d="M 136 268v 12h 6a 6 6, 0, 0, 0, 0 -12" transform="rotate(90,142,274)"/><path d="M 136 304v 12h 6a 6 6, 0, 0, 0, 0 -12" transform="rotate(0,142,310)"/><rect x="136" y="328" width="12" height="12" transform="rotate(0,142,334)"/><rect x="136" y="340" width="12" height="12" transform="rotate(0,142,346)"/><path d="M 136 352v 12h 12v -6a 6 6, 0, 0, 0, -6 -6" transform="rotate(180,142,358)"/><path d="M 136 376v 12h 12v -6a 6 6, 0, 0, 0, -6 -6" transform="rotate(0,142,382)"/><rect x="136" y="388" width="12" height="12" transform="rotate(0,142,394)"/><rect x="136" y="400" width="12" height="12" transform="rotate(0,142,406)"/><rect x="136" y="412" width="12" height="12" transform="rotate(0,142,418)"/><rect x="136" y="424" width="12" height="12" transform="rotate(0,142,430)"/><rect x="136" y="436" width="12" height="12" transform="rotate(0,142,442)"/><rect x="136" y="448" width="12" height="12" transform="rotate(0,142,454)"/><circle cx="154" cy="106" r="6" transform="rotate(0,154,106)"/><circle cx="154" cy="130" r="6" transform="rotate(0,154,130)"/><rect x="148" y="148" width="12" height="12" transform="rotate(0,154,154)"/><path d="M 148 160v 12h 6a 6 6, 0, 0, 0, 0 -12" transform="rotate(90,154,166)"/><path d="M 148 208v 12h 12v -6a 6 6, 0, 0, 0, -6 -6" transform="rotate(-90,154,214)"/><rect x="148" y="220" width="12" height="12" transform="rotate(0,154,226)"/><path d="M 148 232v 12h 6a 6 6, 0, 0, 0, 0 -12" transform="rotate(90,154,238)"/><circle cx="154" cy="286" r="6" transform="rotate(0,154,286)"/><path d="M 148 316v 12h 6a 6 6, 0, 0, 0, 0 -12" transform="rotate(-90,154,322)"/><rect x="148" y="328" width="12" height="12" transform="rotate(0,154,334)"/><rect x="148" y="340" width="12" height="12" transform="rotate(0,154,346)"/><rect x="148" y="352" width="12" height="12" transform="rotate(0,154,358)"/><path d="M 148 364v 12h 12v -6a 6 6, 0, 0, 0, -6 -6" transform="rotate(180,154,370)"/><rect x="148" y="388" width="12" height="12" transform="rotate(0,154,394)"/><rect x="148" y="400" width="12" height="12" transform="rotate(0,154,406)"/><rect x="148" y="424" width="12" height="12" transform="rotate(0,154,430)"/><rect x="148" y="436" width="12" height="12" transform="rotate(0,154,442)"/><rect x="148" y="448" width="12" height="12" transform="rotate(0,154,454)"/><path d="M 148 460v 12h 6a 6 6, 0, 0, 0, 0 -12" transform="rotate(90,154,466)"/><path d="M 160 28v 12h 12v -6a 6 6, 0, 0, 0, -6 -6" transform="rotate(-90,166,34)"/><rect x="160" y="40" width="12" height="12" transform="rotate(0,166,46)"/><path d="M 160 52v 12h 12v -6a 6 6, 0, 0, 0, -6 -6" transform="rotate(180,166,58)"/><path d="M 160 76v 12h 6a 6 6, 0, 0, 0, 0 -12" transform="rotate(180,166,82)"/><rect x="160" y="148" width="12" height="12" transform="rotate(0,166,154)"/><circle cx="166" cy="178" r="6" transform="rotate(0,166,178)"/><path d="M 160 196v 12h 12v -6a 6 6, 0, 0, 0, -6 -6" transform="rotate(-90,166,202)"/><rect x="160" y="208" width="12" height="12" transform="rotate(0,166,214)"/><circle cx="166" cy="262" r="6" transform="rotate(0,166,262)"/><path d="M 160 340v 12h 6a 6 6, 0, 0, 0, 0 -12" transform="rotate(0,166,346)"/><rect x="160" y="364" width="12" height="12" transform="rotate(0,166,370)"/><rect x="160" y="388" width="12" height="12" transform="rotate(0,166,394)"/><rect x="160" y="400" width="12" height="12" transform="rotate(0,166,406)"/><rect x="160" y="412" width="12" height="12" transform="rotate(0,166,418)"/><path d="M 160 424v 12h 12v -6a 6 6, 0, 0, 0, -6 -6" transform="rotate(90,166,430)"/><path d="M 160 448v 12h 6a 6 6, 0, 0, 0, 0 -12" transform="rotate(0,166,454)"/><rect x="172" y="28" width="12" height="12" transform="rotate(0,178,34)"/><rect x="172" y="40" width="12" height="12" transform="rotate(0,178,46)"/><rect x="172" y="52" width="12" height="12" transform="rotate(0,178,58)"/><path d="M 172 76v 12h 12v -6a 6 6, 0, 0, 0, -6 -6" transform="rotate(0,178,82)"/><rect x="172" y="88" width="12" height="12" transform="rotate(0,178,94)"/><rect x="172" y="100" width="12" height="12" transform="rotate(0,178,106)"/><path d="M 172 112v 12h 12v -6a 6 6, 0, 0, 0, -6 -6" transform="rotate(180,178,118)"/><rect x="172" y="148" width="12" height="12" transform="rotate(0,178,154)"/><rect x="172" y="196" width="12" height="12" transform="rotate(0,178,202)"/><rect x="172" y="208" width="12" height="12" transform="rotate(0,178,214)"/><path d="M 172 232v 12h 6a 6 6, 0, 0, 0, 0 -12" transform="rotate(-90,178,238)"/><path d="M 172 244v 12h 6a 6 6, 0, 0, 0, 0 -12" transform="rotate(90,178,250)"/><path d="M 172 268v 12h 6a 6 6, 0, 0, 0, 0 -12" transform="rotate(180,178,274)"/><path d="M 172 304v 12h 6a 6 6, 0, 0, 0, 0 -12" transform="rotate(180,178,310)"/><path d="M 172 352v 12h 12v -6a 6 6, 0, 0, 0, -6 -6" transform="rotate(-90,178,358)"/><rect x="172" y="364" width="12" height="12" transform="rotate(0,178,370)"/><path d="M 172 388v 12h 12v -6a 6 6, 0, 0, 0, -6 -6" transform="rotate(0,178,394)"/><rect x="172" y="400" width="12" height="12" transform="rotate(0,178,406)"/><path d="M 184 28v 12h 6a 6 6, 0, 0, 0, 0 -12" transform="rotate(0,190,34)"/><path d="M 184 52v 12h 6a 6 6, 0, 0, 0, 0 -12" transform="rotate(0,190,58)"/><path d="M 184 88v 12h 6a 6 6, 0, 0, 0, 0 -12" transform="rotate(0,190,94)"/><path d="M 184 112v 12h 12v -6a 6 6, 0, 0, 0, -6 -6" transform="rotate(0,190,118)"/><rect x="184" y="124" width="12" height="12" transform="rotate(0,190,130)"/><rect x="184" y="136" width="12" height="12" transform="rotate(0,190,142)"/><path d="M 184 148v 12h 12v -6a 6 6, 0, 0, 0, -6 -6" transform="rotate(90,190,154)"/><path d="M 184 172v 12h 12v -6a 6 6, 0, 0, 0, -6 -6" transform="rotate(-90,190,178)"/><rect x="184" y="184" width="12" height="12" transform="rotate(0,190,190)"/><rect x="184" y="196" width="12" height="12" transform="rotate(0,190,202)"/><path d="M 184 208v 12h 12v -6a 6 6, 0, 0, 0, -6 -6" transform="rotate(90,190,214)"/><rect x="184" y="268" width="12" height="12" transform="rotate(0,190,274)"/><path d="M 184 304v 12h 6a 6 6, 0, 0, 0, 0 -12" transform="rotate(0,190,310)"/><path d="M 184 328v 12h 12v -6a 6 6, 0, 0, 0, -6 -6" transform="rotate(-90,190,334)"/><rect x="184" y="340" width="12" height="12" transform="rotate(0,190,346)"/><rect x="184" y="352" width="12" height="12" transform="rotate(0,190,358)"/><rect x="184" y="364" width="12" height="12" transform="rotate(0,190,370)"/><path d="M 184 376v 12h 6a 6 6, 0, 0, 0, 0 -12" transform="rotate(90,190,382)"/><rect x="184" y="400" width="12" height="12" transform="rotate(0,190,406)"/><circle cx="190" cy="442" r="6" transform="rotate(0,190,442)"/><path d="M 196 40v 12h 6a 6 6, 0, 0, 0, 0 -12" transform="rotate(180,202,46)"/><path d="M 196 76v 12h 6a 6 6, 0, 0, 0, 0 -12" transform="rotate(180,202,82)"/><circle cx="202" cy="106" r="6" transform="rotate(0,202,106)"/><rect x="196" y="124" width="12" height="12" transform="rotate(0,202,130)"/><rect x="196" y="136" width="12" height="12" transform="rotate(0,202,142)"/><path d="M 196 160v 12h 12v -6a 6 6, 0, 0, 0, -6 -6" transform="rotate(-90,202,166)"/><rect x="196" y="172" width="12" height="12" transform="rotate(0,202,178)"/><rect x="196" y="184" width="12" height="12" transform="rotate(0,202,190)"/><rect x="196" y="196" width="12" height="12" transform="rotate(0,202,202)"/><path d="M 196 220v 12h 12v -6a 6 6, 0, 0, 0, -6 -6" transform="rotate(-90,202,226)"/><rect x="196" y="232" width="12" height="12" transform="rotate(0,202,238)"/><rect x="196" y="244" width="12" height="12" transform="rotate(0,202,250)"/><rect x="196" y="256" width="12" height="12" transform="rotate(0,202,262)"/><rect x="196" y="268" width="12" height="12" transform="rotate(0,202,274)"/><path d="M 196 280v 12h 6a 6 6, 0, 0, 0, 0 -12" transform="rotate(90,202,286)"/><path d="M 196 328v 12h 12v -6a 6 6, 0, 0, 0, -6 -6" transform="rotate(0,202,334)"/><rect x="196" y="340" width="12" height="12" transform="rotate(0,202,346)"/><rect x="196" y="352" width="12" height="12" transform="rotate(0,202,358)"/><rect x="196" y="364" width="12" height="12" transform="rotate(0,202,370)"/><path d="M 196 388v 12h 6a 6 6, 0, 0, 0, 0 -12" transform="rotate(-90,202,394)"/><rect x="196" y="400" width="12" height="12" transform="rotate(0,202,406)"/><rect x="196" y="412" width="12" height="12" transform="rotate(0,202,418)"/><path d="M 196 424v 12h 12v -6a 6 6, 0, 0, 0, -6 -6" transform="rotate(180,202,430)"/><path d="M 196 448v 12h 6a 6 6, 0, 0, 0, 0 -12" transform="rotate(-90,202,454)"/><path d="M 196 460v 12h 6a 6 6, 0, 0, 0, 0 -12" transform="rotate(90,202,466)"/><path d="M 208 40v 12h 12v -6a 6 6, 0, 0, 0, -6 -6" transform="rotate(0,214,46)"/><rect x="208" y="52" width="12" height="12" transform="rotate(0,214,58)"/><rect x="208" y="64" width="12" height="12" transform="rotate(0,214,70)"/><rect x="208" y="76" width="12" height="12" transform="rotate(0,214,82)"/><path d="M 208 88v 12h 6a 6 6, 0, 0, 0, 0 -12" transform="rotate(90,214,94)"/><path d="M 208 124v 12h 12v -6a 6 6, 0, 0, 0, -6 -6" transform="rotate(0,214,130)"/><rect x="208" y="136" width="12" height="12" transform="rotate(0,214,142)"/><path d="M 208 160v 12h 6a 6 6, 0, 0, 0, 0 -12" transform="rotate(0,214,166)"/><path d="M 208 184v 12h 12v -6a 6 6, 0, 0, 0, -6 -6" transform="rotate(0,214,190)"/><rect x="208" y="196" width="12" height="12" transform="rotate(0,214,202)"/><rect x="208" y="208" width="12" height="12" transform="rotate(0,214,214)"/><rect x="208" y="220" width="12" height="12" transform="rotate(0,214,226)"/><path d="M 208 244v 12h 6a 6 6, 0, 0, 0, 0 -12" transform="rotate(0,214,250)"/><circle cx="214" cy="322" r="6" transform="rotate(0,214,322)"/><rect x="208" y="352" width="12" height="12" transform="rotate(0,214,358)"/><rect x="208" y="364" width="12" height="12" transform="rotate(0,214,370)"/><path d="M 208 376v 12h 12v -6a 6 6, 0, 0, 0, -6 -6" transform="rotate(180,214,382)"/><rect x="208" y="412" width="12" height="12" transform="rotate(0,214,418)"/><rect x="208" y="424" width="12" height="12" transform="rotate(0,214,430)"/><path d="M 208 436v 12h 12v -6a 6 6, 0, 0, 0, -6 -6" transform="rotate(180,214,442)"/><circle cx="226" cy="34" r="6" transform="rotate(0,226,34)"/><circle cx="226" cy="106" r="6" transform="rotate(0,226,106)"/><rect x="220" y="136" width="12" height="12" transform="rotate(0,226,142)"/><rect x="220" y="220" width="12" height="12" transform="rotate(0,226,226)"/><circle cx="226" cy="274" r="6" transform="rotate(0,226,274)"/><path d="M 220 292v 12h 6a 6 6, 0, 0, 0, 0 -12" transform="rotate(180,226,298)"/><circle cx="226" cy="334" r="6" transform="rotate(0,226,334)"/><rect x="220" y="352" width="12" height="12" transform="rotate(0,226,358)"/><path d="M 220 376v 12h 12v -6a 6 6, 0, 0, 0, -6 -6" transform="rotate(0,226,382)"/><path d="M 220 388v 12h 6a 6 6, 0, 0, 0, 0 -12" transform="rotate(90,226,394)"/><path d="M 220 412v 12h 6a 6 6, 0, 0, 0, 0 -12" transform="rotate(0,226,418)"/><path d="M 220 436v 12h 6a 6 6, 0, 0, 0, 0 -12" transform="rotate(0,226,442)"/><circle cx="226" cy="466" r="6" transform="rotate(0,226,466)"/><path d="M 232 40v 12h 6a 6 6, 0, 0, 0, 0 -12" transform="rotate(180,238,46)"/><path d="M 232 64v 12h 6a 6 6, 0, 0, 0, 0 -12" transform="rotate(180,238,70)"/><path d="M 232 136v 12h 6a 6 6, 0, 0, 0, 0 -12" transform="rotate(0,238,142)"/><path d="M 232 196v 12h 6a 6 6, 0, 0, 0, 0 -12" transform="rotate(-90,238,202)"/><rect x="232" y="208" width="12" height="12" transform="rotate(0,238,214)"/><rect x="232" y="220" width="12" height="12" transform="rotate(0,238,226)"/><circle cx="238" cy="250" r="6" transform="rotate(0,238,250)"/><path d="M 232 280v 12h 6a 6 6, 0, 0, 0, 0 -12" transform="rotate(-90,238,286)"/><rect x="232" y="292" width="12" height="12" transform="rotate(0,238,298)"/><rect x="232" y="304" width="12" height="12" transform="rotate(0,238,310)"/><path d="M 232 316v 12h 6a 6 6, 0, 0, 0, 0 -12" transform="rotate(90,238,322)"/><path d="M 232 340v 12h 6a 6 6, 0, 0, 0, 0 -12" transform="rotate(-90,238,346)"/><rect x="232" y="352" width="12" height="12" transform="rotate(0,238,358)"/><path d="M 232 364v 12h 6a 6 6, 0, 0, 0, 0 -12" transform="rotate(90,238,370)"/><path d="M 232 400v 12h 6a 6 6, 0, 0, 0, 0 -12" transform="rotate(180,238,406)"/><circle cx="238" cy="430" r="6" transform="rotate(0,238,430)"/><rect x="244" y="40" width="12" height="12" transform="rotate(0,250,46)"/><rect x="244" y="52" width="12" height="12" transform="rotate(0,250,58)"/><rect x="244" y="64" width="12" height="12" transform="rotate(0,250,70)"/><path d="M 244 76v 12h 12v -6a 6 6, 0, 0, 0, -6 -6" transform="rotate(180,250,82)"/><path d="M 244 100v 12h 6a 6 6, 0, 0, 0, 0 -12" transform="rotate(-90,250,106)"/><path d="M 244 112v 12h 12v -6a 6 6, 0, 0, 0, -6 -6" transform="rotate(180,250,118)"/><path d="M 244 148v 12h 6a 6 6, 0, 0, 0, 0 -12" transform="rotate(180,250,154)"/><rect x="244" y="220" width="12" height="12" transform="rotate(0,250,226)"/><circle cx="250" cy="274" r="6" transform="rotate(0,250,274)"/><path d="M 244 304v 12h 6a 6 6, 0, 0, 0, 0 -12" transform="rotate(0,250,310)"/><path d="M 244 352v 12h 6a 6 6, 0, 0, 0, 0 -12" transform="rotate(0,250,358)"/><path d="M 244 388v 12h 12v -6a 6 6, 0, 0, 0, -6 -6" transform="rotate(-90,250,394)"/><rect x="244" y="400" width="12" height="12" transform="rotate(0,250,406)"/><circle cx="250" cy="442" r="6" transform="rotate(0,250,442)"/><circle cx="250" cy="466" r="6" transform="rotate(0,250,466)"/><path d="M 256 28v 12h 12v -6a 6 6, 0, 0, 0, -6 -6" transform="rotate(-90,262,34)"/><rect x="256" y="40" width="12" height="12" transform="rotate(0,262,46)"/><path d="M 256 64v 12h 12v -6a 6 6, 0, 0, 0, -6 -6" transform="rotate(0,262,70)"/><rect x="256" y="76" width="12" height="12" transform="rotate(0,262,82)"/><path d="M 256 112v 12h 6a 6 6, 0, 0, 0, 0 -12" transform="rotate(0,262,118)"/><path d="M 256 136v 12h 12v -6a 6 6, 0, 0, 0, -6 -6" transform="rotate(-90,262,142)"/><rect x="256" y="148" width="12" height="12" transform="rotate(0,262,154)"/><rect x="256" y="160" width="12" height="12" transform="rotate(0,262,166)"/><path d="M 256 172v 12h 12v -6a 6 6, 0, 0, 0, -6 -6" transform="rotate(180,262,178)"/><path d="M 256 196v 12h 6a 6 6, 0, 0, 0, 0 -12" transform="rotate(-90,262,202)"/><rect x="256" y="208" width="12" height="12" transform="rotate(0,262,214)"/><rect x="256" y="220" width="12" height="12" transform="rotate(0,262,226)"/><path d="M 256 232v 12h 12v -6a 6 6, 0, 0, 0, -6 -6" transform="rotate(180,262,238)"/><circle cx="262" cy="262" r="6" transform="rotate(0,262,262)"/><path d="M 256 364v 12h 6a 6 6, 0, 0, 0, 0 -12" transform="rotate(-90,262,370)"/><rect x="256" y="376" width="12" height="12" transform="rotate(0,262,382)"/><rect x="256" y="388" width="12" height="12" transform="rotate(0,262,394)"/><rect x="256" y="400" width="12" height="12" transform="rotate(0,262,406)"/><rect x="256" y="412" width="12" height="12" transform="rotate(0,262,418)"/><path d="M 256 424v 12h 12v -6a 6 6, 0, 0, 0, -6 -6" transform="rotate(180,262,430)"/><circle cx="262" cy="454" r="6" transform="rotate(0,262,454)"/><rect x="268" y="28" width="12" height="12" transform="rotate(0,274,34)"/><rect x="268" y="40" width="12" height="12" transform="rotate(0,274,46)"/><path d="M 268 52v 12h 6a 6 6, 0, 0, 0, 0 -12" transform="rotate(90,274,58)"/><rect x="268" y="76" width="12" height="12" transform="rotate(0,274,82)"/><circle cx="274" cy="106" r="6" transform="rotate(0,274,106)"/><path d="M 268 136v 12h 12v -6a 6 6, 0, 0, 0, -6 -6" transform="rotate(0,274,142)"/><rect x="268" y="148" width="12" height="12" transform="rotate(0,274,154)"/><path d="M 268 172v 12h 12v -6a 6 6, 0, 0, 0, -6 -6" transform="rotate(0,274,178)"/><path d="M 268 184v 12h 12v -6a 6 6, 0, 0, 0, -6 -6" transform="rotate(180,274,190)"/><rect x="268" y="220" width="12" height="12" transform="rotate(0,274,226)"/><path d="M 268 232v 12h 12v -6a 6 6, 0, 0, 0, -6 -6" transform="rotate(90,274,238)"/><circle cx="274" cy="274" r="6" transform="rotate(0,274,274)"/><path d="M 268 292v 12h 6a 6 6, 0, 0, 0, 0 -12" transform="rotate(-90,274,298)"/><path d="M 268 304v 12h 12v -6a 6 6, 0, 0, 0, -6 -6" transform="rotate(180,274,310)"/><path d="M 268 328v 12h 12v -6a 6 6, 0, 0, 0, -6 -6" transform="rotate(-90,274,334)"/><rect x="268" y="340" width="12" height="12" transform="rotate(0,274,346)"/><path d="M 268 352v 12h 12v -6a 6 6, 0, 0, 0, -6 -6" transform="rotate(180,274,358)"/><path d="M 268 388v 12h 12v -6a 6 6, 0, 0, 0, -6 -6" transform="rotate(0,274,394)"/><rect x="268" y="400" width="12" height="12" transform="rotate(0,274,406)"/><rect x="268" y="412" width="12" height="12" transform="rotate(0,274,418)"/><rect x="268" y="424" width="12" height="12" transform="rotate(0,274,430)"/><path d="M 268 436v 12h 12v -6a 6 6, 0, 0, 0, -6 -6" transform="rotate(180,274,442)"/><path d="M 280 28v 12h 6a 6 6, 0, 0, 0, 0 -12" transform="rotate(0,286,34)"/><path d="M 280 64v 12h 12v -6a 6 6, 0, 0, 0, -6 -6" transform="rotate(-90,286,70)"/><path d="M 280 76v 12h 12v -6a 6 6, 0, 0, 0, -6 -6" transform="rotate(90,286,82)"/><path d="M 280 124v 12h 6a 6 6, 0, 0, 0, 0 -12" transform="rotate(180,286,130)"/><path d="M 280 148v 12h 12v -6a 6 6, 0, 0, 0, -6 -6" transform="rotate(0,286,154)"/><path d="M 280 160v 12h 12v -6a 6 6, 0, 0, 0, -6 -6" transform="rotate(180,286,166)"/><path d="M 280 184v 12h 12v -6a 6 6, 0, 0, 0, -6 -6" transform="rotate(0,286,190)"/><path d="M 280 196v 12h 6a 6 6, 0, 0, 0, 0 -12" transform="rotate(90,286,202)"/><rect x="280" y="220" width="12" height="12" transform="rotate(0,286,226)"/><circle cx="286" cy="262" r="6" transform="rotate(0,286,262)"/><circle cx="286" cy="286" r="6" transform="rotate(0,286,286)"/><path d="M 280 304v 12h 6a 6 6, 0, 0, 0, 0 -12" transform="rotate(0,286,310)"/><path d="M 280 328v 12h 12v -6a 6 6, 0, 0, 0, -6 -6" transform="rotate(0,286,334)"/><rect x="280" y="340" width="12" height="12" transform="rotate(0,286,346)"/><rect x="280" y="352" width="12" height="12" transform="rotate(0,286,358)"/><rect x="280" y="364" width="12" height="12" transform="rotate(0,286,370)"/><path d="M 280 376v 12h 12v -6a 6 6, 0, 0, 0, -6 -6" transform="rotate(180,286,382)"/><path d="M 280 400v 12h 12v -6a 6 6, 0, 0, 0, -6 -6" transform="rotate(0,286,406)"/><rect x="280" y="412" width="12" height="12" transform="rotate(0,286,418)"/><rect x="280" y="424" width="12" height="12" transform="rotate(0,286,430)"/><path d="M 280 436v 12h 12v -6a 6 6, 0, 0, 0, -6 -6" transform="rotate(90,286,442)"/><path d="M 292 40v 12h 6a 6 6, 0, 0, 0, 0 -12" transform="rotate(180,298,46)"/><rect x="292" y="64" width="12" height="12" transform="rotate(0,298,70)"/><circle cx="298" cy="106" r="6" transform="rotate(0,298,106)"/><path d="M 292 124v 12h 12v -6a 6 6, 0, 0, 0, -6 -6" transform="rotate(0,298,130)"/><path d="M 292 136v 12h 6a 6 6, 0, 0, 0, 0 -12" transform="rotate(90,298,142)"/><path d="M 292 160v 12h 6a 6 6, 0, 0, 0, 0 -12" transform="rotate(0,298,166)"/><path d="M 292 208v 12h 6a 6 6, 0, 0, 0, 0 -12" transform="rotate(-90,298,214)"/><rect x="292" y="220" width="12" height="12" transform="rotate(0,298,226)"/><path d="M 292 232v 12h 6a 6 6, 0, 0, 0, 0 -12" transform="rotate(90,298,238)"/><path d="M 292 292v 12h 6a 6 6, 0, 0, 0, 0 -12" transform="rotate(180,298,298)"/><circle cx="298" cy="322" r="6" transform="rotate(0,298,322)"/><rect x="292" y="352" width="12" height="12" transform="rotate(0,298,358)"/><rect x="292" y="376" width="12" height="12" transform="rotate(0,298,382)"/><circle cx="298" cy="466" r="6" transform="rotate(0,298,466)"/><rect x="304" y="40" width="12" height="12" transform="rotate(0,310,46)"/><rect x="304" y="52" width="12" height="12" transform="rotate(0,310,58)"/><rect x="304" y="64" width="12" height="12" transform="rotate(0,310,70)"/><path d="M 304 76v 12h 12v -6a 6 6, 0, 0, 0, -6 -6" transform="rotate(180,310,82)"/><path d="M 304 112v 12h 6a 6 6, 0, 0, 0, 0 -12" transform="rotate(180,310,118)"/><path d="M 304 148v 12h 6a 6 6, 0, 0, 0, 0 -12" transform="rotate(180,310,154)"/><path d="M 304 196v 12h 6a 6 6, 0, 0, 0, 0 -12" transform="rotate(180,310,202)"/><rect x="304" y="220" width="12" height="12" transform="rotate(0,310,226)"/><circle cx="310" cy="262" r="6" transform="rotate(0,310,262)"/><path d="M 304 292v 12h 6a 6 6, 0, 0, 0, 0 -12" transform="rotate(0,310,298)"/><path d="M 304 340v 12h 6a 6 6, 0, 0, 0, 0 -12" transform="rotate(-90,310,346)"/><path d="M 304 352v 12h 12v -6a 6 6, 0, 0, 0, -6 -6" transform="rotate(90,310,358)"/><path d="M 304 376v 12h 6a 6 6, 0, 0, 0, 0 -12" transform="rotate(0,310,382)"/><path d="M 304 400v 12h 6a 6 6, 0, 0, 0, 0 -12" transform="rotate(180,310,406)"/><circle cx="310" cy="430" r="6" transform="rotate(0,310,430)"/><circle cx="310" cy="454" r="6" transform="rotate(0,310,454)"/><path d="M 316 40v 12h 12v -6a 6 6, 0, 0, 0, -6 -6" transform="rotate(0,322,46)"/><path d="M 316 52v 12h 12v -6a 6 6, 0, 0, 0, -6 -6" transform="rotate(90,322,58)"/><rect x="316" y="76" width="12" height="12" transform="rotate(0,322,82)"/><path d="M 316 100v 12h 6a 6 6, 0, 0, 0, 0 -12" transform="rotate(-90,322,106)"/><rect x="316" y="112" width="12" height="12" transform="rotate(0,322,118)"/><path d="M 316 148v 12h 12v -6a 6 6, 0, 0, 0, -6 -6" transform="rotate(0,322,154)"/><path d="M 316 160v 12h 6a 6 6, 0, 0, 0, 0 -12" transform="rotate(90,322,166)"/><rect x="316" y="196" width="12" height="12" transform="rotate(0,322,202)"/><path d="M 316 220v 12h 6a 6 6, 0, 0, 0, 0 -12" transform="rotate(0,322,226)"/><circle cx="322" cy="250" r="6" transform="rotate(0,322,250)"/><path d="M 316 304v 12h 6a 6 6, 0, 0, 0, 0 -12" transform="rotate(180,322,310)"/><path d="M 316 364v 12h 6a 6 6, 0, 0, 0, 0 -12" transform="rotate(180,322,370)"/><path d="M 316 388v 12h 6a 6 6, 0, 0, 0, 0 -12" transform="rotate(-90,322,394)"/><rect x="316" y="400" width="12" height="12" transform="rotate(0,322,406)"/><circle cx="322" cy="466" r="6" transform="rotate(0,322,466)"/><path d="M 328 28v 12h 6a 6 6, 0, 0, 0, 0 -12" transform="rotate(180,334,34)"/><path d="M 328 76v 12h 12v -6a 6 6, 0, 0, 0, -6 -6" transform="rotate(0,334,82)"/><path d="M 328 88v 12h 6a 6 6, 0, 0, 0, 0 -12" transform="rotate(90,334,94)"/><path d="M 328 112v 12h 6a 6 6, 0, 0, 0, 0 -12" transform="rotate(0,334,118)"/><circle cx="334" cy="178" r="6" transform="rotate(0,334,178)"/><rect x="328" y="196" width="12" height="12" transform="rotate(0,334,202)"/><path d="M 328 208v 12h 12v -6a 6 6, 0, 0, 0, -6 -6" transform="rotate(180,334,214)"/><circle cx="334" cy="238" r="6" transform="rotate(0,334,238)"/><path d="M 328 268v 12h 6a 6 6, 0, 0, 0, 0 -12" transform="rotate(-90,334,274)"/><rect x="328" y="280" width="12" height="12" transform="rotate(0,334,286)"/><rect x="328" y="292" width="12" height="12" transform="rotate(0,334,298)"/><path d="M 328 304v 12h 12v -6a 6 6, 0, 0, 0, -6 -6" transform="rotate(90,334,310)"/><path d="M 328 340v 12h 6a 6 6, 0, 0, 0, 0 -12" transform="rotate(-90,334,346)"/><rect x="328" y="352" width="12" height="12" transform="rotate(0,334,358)"/><rect x="328" y="364" width="12" height="12" transform="rotate(0,334,370)"/><path d="M 328 400v 12h 6a 6 6, 0, 0, 0, 0 -12" transform="rotate(0,334,406)"/><circle cx="334" cy="430" r="6" transform="rotate(0,334,430)"/><rect x="340" y="28" width="12" height="12" transform="rotate(0,346,34)"/><path d="M 340 52v 12h 6a 6 6, 0, 0, 0, 0 -12" transform="rotate(180,346,58)"/><circle cx="346" cy="106" r="6" transform="rotate(0,346,106)"/><path d="M 340 124v 12h 6a 6 6, 0, 0, 0, 0 -12" transform="rotate(-90,346,130)"/><rect x="340" y="136" width="12" height="12" transform="rotate(0,346,142)"/><rect x="340" y="148" width="12" height="12" transform="rotate(0,346,154)"/><path d="M 340 160v 12h 12v -6a 6 6, 0, 0, 0, -6 -6" transform="rotate(180,346,166)"/><path d="M 340 184v 12h 6a 6 6, 0, 0, 0, 0 -12" transform="rotate(-90,346,190)"/><rect x="340" y="196" width="12" height="12" transform="rotate(0,346,202)"/><path d="M 340 208v 12h 12v -6a 6 6, 0, 0, 0, -6 -6" transform="rotate(90,346,214)"/><circle cx="346" cy="250" r="6" transform="rotate(0,346,250)"/><path d="M 340 280v 12h 12v -6a 6 6, 0, 0, 0, -6 -6" transform="rotate(0,346,286)"/><rect x="340" y="292" width="12" height="12" transform="rotate(0,346,298)"/><path d="M 340 352v 12h 12v -6a 6 6, 0, 0, 0, -6 -6" transform="rotate(0,346,358)"/><path d="M 340 364v 12h 12v -6a 6 6, 0, 0, 0, -6 -6" transform="rotate(90,346,370)"/><circle cx="346" cy="394" r="6" transform="rotate(0,346,394)"/><path d="M 340 448v 12h 12v -6a 6 6, 0, 0, 0, -6 -6" transform="rotate(-90,346,454)"/><path d="M 340 460v 12h 6a 6 6, 0, 0, 0, 0 -12" transform="rotate(90,346,466)"/><rect x="352" y="28" width="12" height="12" transform="rotate(0,358,34)"/><path d="M 352 52v 12h 12v -6a 6 6, 0, 0, 0, -6 -6" transform="rotate(0,358,58)"/><path d="M 352 64v 12h 12v -6a 6 6, 0, 0, 0, -6 -6" transform="rotate(180,358,70)"/><circle cx="358" cy="118" r="6" transform="rotate(0,358,118)"/><path d="M 352 148v 12h 12v -6a 6 6, 0, 0, 0, -6 -6" transform="rotate(0,358,154)"/><path d="M 352 160v 12h 12v -6a 6 6, 0, 0, 0, -6 -6" transform="rotate(90,358,166)"/><rect x="352" y="196" width="12" height="12" transform="rotate(0,358,202)"/><path d="M 352 220v 12h 6a 6 6, 0, 0, 0, 0 -12" transform="rotate(180,358,226)"/><path d="M 352 256v 12h 12v -6a 6 6, 0, 0, 0, -6 -6" transform="rotate(-90,358,262)"/><path d="M 352 268v 12h 6a 6 6, 0, 0, 0, 0 -12" transform="rotate(90,358,274)"/><rect x="352" y="292" width="12" height="12" transform="rotate(0,358,298)"/><path d="M 352 340v 12h 6a 6 6, 0, 0, 0, 0 -12" transform="rotate(180,358,346)"/><path d="M 352 376v 12h 6a 6 6, 0, 0, 0, 0 -12" transform="rotate(180,358,382)"/><path d="M 352 400v 12h 12v -6a 6 6, 0, 0, 0, -6 -6" transform="rotate(-90,358,406)"/><rect x="352" y="412" width="12" height="12" transform="rotate(0,358,418)"/><rect x="352" y="424" width="12" height="12" transform="rotate(0,358,430)"/><rect x="352" y="436" width="12" height="12" transform="rotate(0,358,442)"/><path d="M 352 448v 12h 12v -6a 6 6, 0, 0, 0, -6 -6" transform="rotate(90,358,454)"/><path d="M 364 28v 12h 6a 6 6, 0, 0, 0, 0 -12" transform="rotate(0,370,34)"/><path d="M 364 64v 12h 12v -6a 6 6, 0, 0, 0, -6 -6" transform="rotate(0,370,70)"/><path d="M 364 76v 12h 6a 6 6, 0, 0, 0, 0 -12" transform="rotate(90,370,82)"/><circle cx="370" cy="106" r="6" transform="rotate(0,370,106)"/><path d="M 364 124v 12h 6a 6 6, 0, 0, 0, 0 -12" transform="rotate(180,370,130)"/><path d="M 364 196v 12h 12v -6a 6 6, 0, 0, 0, -6 -6" transform="rotate(0,370,202)"/><rect x="364" y="208" width="12" height="12" transform="rotate(0,370,214)"/><path d="M 364 220v 12h 12v -6a 6 6, 0, 0, 0, -6 -6" transform="rotate(90,370,226)"/><path d="M 364 244v 12h 6a 6 6, 0, 0, 0, 0 -12" transform="rotate(-90,370,250)"/><rect x="364" y="256" width="12" height="12" transform="rotate(0,370,262)"/><rect x="364" y="292" width="12" height="12" transform="rotate(0,370,298)"/><path d="M 364 316v 12h 6a 6 6, 0, 0, 0, 0 -12" transform="rotate(-90,370,322)"/><rect x="364" y="328" width="12" height="12" transform="rotate(0,370,334)"/><path d="M 364 340v 12h 12v -6a 6 6, 0, 0, 0, -6 -6" transform="rotate(90,370,346)"/><path d="M 364 364v 12h 12v -6a 6 6, 0, 0, 0, -6 -6" transform="rotate(-90,370,370)"/><rect x="364" y="376" width="12" height="12" transform="rotate(0,370,382)"/><rect x="364" y="388" width="12" height="12" transform="rotate(0,370,394)"/><rect x="364" y="400" width="12" height="12" transform="rotate(0,370,406)"/><rect x="364" y="412" width="12" height="12" transform="rotate(0,370,418)"/><path d="M 364 436v 12h 6a 6 6, 0, 0, 0, 0 -12" transform="rotate(0,370,442)"/><circle cx="370" cy="466" r="6" transform="rotate(0,370,466)"/><rect x="376" y="124" width="12" height="12" transform="rotate(0,382,130)"/><rect x="376" y="136" width="12" height="12" transform="rotate(0,382,142)"/><path d="M 376 148v 12h 6a 6 6, 0, 0, 0, 0 -12" transform="rotate(90,382,154)"/><path d="M 376 232v 12h 6a 6 6, 0, 0, 0, 0 -12" transform="rotate(180,382,238)"/><rect x="376" y="256" width="12" height="12" transform="rotate(0,382,262)"/><rect x="376" y="292" width="12" height="12" transform="rotate(0,382,298)"/><path d="M 376 304v 12h 12v -6a 6 6, 0, 0, 0, -6 -6" transform="rotate(180,382,310)"/><path d="M 376 328v 12h 6a 6 6, 0, 0, 0, 0 -12" transform="rotate(0,382,334)"/><path d="M 376 352v 12h 6a 6 6, 0, 0, 0, 0 -12" transform="rotate(-90,382,358)"/><rect x="376" y="364" width="12" height="12" transform="rotate(0,382,370)"/><rect x="376" y="412" width="12" height="12" transform="rotate(0,382,418)"/><path d="M 376 424v 12h 12v -6a 6 6, 0, 0, 0, -6 -6" transform="rotate(180,382,430)"/><circle cx="382" cy="454" r="6" transform="rotate(0,382,454)"/><path d="M 388 124v 12h 6a 6 6, 0, 0, 0, 0 -12" transform="rotate(0,394,130)"/><path d="M 388 184v 12h 6a 6 6, 0, 0, 0, 0 -12" transform="rotate(180,394,190)"/><path d="M 388 220v 12h 12v -6a 6 6, 0, 0, 0, -6 -6" transform="rotate(-90,394,226)"/><path d="M 388 232v 12h 12v -6a 6 6, 0, 0, 0, -6 -6" transform="rotate(90,394,238)"/><path d="M 388 256v 12h 12v -6a 6 6, 0, 0, 0, -6 -6" transform="rotate(0,394,262)"/><path d="M 388 268v 12h 6a 6 6, 0, 0, 0, 0 -12" transform="rotate(90,394,274)"/><path d="M 388 292v 12h 12v -6a 6 6, 0, 0, 0, -6 -6" transform="rotate(0,394,298)"/><rect x="388" y="304" width="12" height="12" transform="rotate(0,394,310)"/><path d="M 388 316v 12h 6a 6 6, 0, 0, 0, 0 -12" transform="rotate(90,394,322)"/><rect x="388" y="364" width="12" height="12" transform="rotate(0,394,370)"/><circle cx="394" cy="394" r="6" transform="rotate(0,394,394)"/><rect x="388" y="412" width="12" height="12" transform="rotate(0,394,418)"/><rect x="388" y="424" width="12" height="12" transform="rotate(0,394,430)"/><path d="M 388 436v 12h 6a 6 6, 0, 0, 0, 0 -12" transform="rotate(90,394,442)"/><path d="M 388 460v 12h 6a 6 6, 0, 0, 0, 0 -12" transform="rotate(180,394,466)"/><path d="M 400 148v 12h 12v -6a 6 6, 0, 0, 0, -6 -6" transform="rotate(-90,406,154)"/><rect x="400" y="160" width="12" height="12" transform="rotate(0,406,166)"/><rect x="400" y="172" width="12" height="12" transform="rotate(0,406,178)"/><rect x="400" y="184" width="12" height="12" transform="rotate(0,406,190)"/><path d="M 400 196v 12h 6a 6 6, 0, 0, 0, 0 -12" transform="rotate(90,406,202)"/><path d="M 400 220v 12h 6a 6 6, 0, 0, 0, 0 -12" transform="rotate(0,406,226)"/><path d="M 400 244v 12h 6a 6 6, 0, 0, 0, 0 -12" transform="rotate(180,406,250)"/><path d="M 400 340v 12h 12v -6a 6 6, 0, 0, 0, -6 -6" transform="rotate(-90,406,346)"/><rect x="400" y="352" width="12" height="12" transform="rotate(0,406,358)"/><rect x="400" y="364" width="12" height="12" transform="rotate(0,406,370)"/><rect x="400" y="412" width="12" height="12" transform="rotate(0,406,418)"/><path d="M 400 424v 12h 12v -6a 6 6, 0, 0, 0, -6 -6" transform="rotate(90,406,430)"/><rect x="400" y="460" width="12" height="12" transform="rotate(0,406,466)"/><rect x="412" y="148" width="12" height="12" transform="rotate(0,418,154)"/><path d="M 412 172v 12h 6a 6 6, 0, 0, 0, 0 -12" transform="rotate(0,418,178)"/><rect x="412" y="244" width="12" height="12" transform="rotate(0,418,250)"/><circle cx="418" cy="286" r="6" transform="rotate(0,418,286)"/><path d="M 412 304v 12h 12v -6a 6 6, 0, 0, 0, -6 -6" transform="rotate(-90,418,310)"/><rect x="412" y="316" width="12" height="12" transform="rotate(0,418,322)"/><rect x="412" y="328" width="12" height="12" transform="rotate(0,418,334)"/><rect x="412" y="340" width="12" height="12" transform="rotate(0,418,346)"/><rect x="412" y="352" width="12" height="12" transform="rotate(0,418,358)"/><rect x="412" y="364" width="12" height="12" transform="rotate(0,418,370)"/><rect x="412" y="376" width="12" height="12" transform="rotate(0,418,382)"/><rect x="412" y="388" width="12" height="12" transform="rotate(0,418,394)"/><rect x="412" y="400" width="12" height="12" transform="rotate(0,418,406)"/><path d="M 412 412v 12h 12v -6a 6 6, 0, 0, 0, -6 -6" transform="rotate(90,418,418)"/><circle cx="418" cy="442" r="6" transform="rotate(0,418,442)"/><path d="M 412 460v 12h 6a 6 6, 0, 0, 0, 0 -12" transform="rotate(0,418,466)"/><path d="M 424 136v 12h 6a 6 6, 0, 0, 0, 0 -12" transform="rotate(-90,430,142)"/><rect x="424" y="148" width="12" height="12" transform="rotate(0,430,154)"/><path d="M 424 232v 12h 12v -6a 6 6, 0, 0, 0, -6 -6" transform="rotate(-90,430,238)"/><rect x="424" y="244" width="12" height="12" transform="rotate(0,430,250)"/><path d="M 424 292v 12h 12v -6a 6 6, 0, 0, 0, -6 -6" transform="rotate(-90,430,298)"/><path d="M 424 304v 12h 12v -6a 6 6, 0, 0, 0, -6 -6" transform="rotate(90,430,310)"/><path d="M 424 352v 12h 12v -6a 6 6, 0, 0, 0, -6 -6" transform="rotate(0,430,358)"/><rect x="424" y="364" width="12" height="12" transform="rotate(0,430,370)"/><path d="M 424 388v 12h 6a 6 6, 0, 0, 0, 0 -12" transform="rotate(0,430,394)"/><circle cx="430" cy="454" r="6" transform="rotate(0,430,454)"/><path d="M 436 148v 12h 12v -6a 6 6, 0, 0, 0, -6 -6" transform="rotate(0,442,154)"/><path d="M 436 160v 12h 12v -6a 6 6, 0, 0, 0, -6 -6" transform="rotate(180,442,166)"/><circle cx="442" cy="190" r="6" transform="rotate(0,442,190)"/><path d="M 436 208v 12h 12v -6a 6 6, 0, 0, 0, -6 -6" transform="rotate(-90,442,214)"/><rect x="436" y="220" width="12" height="12" transform="rotate(0,442,226)"/><rect x="436" y="232" width="12" height="12" transform="rotate(0,442,238)"/><rect x="436" y="244" width="12" height="12" transform="rotate(0,442,250)"/><path d="M 436 256v 12h 12v -6a 6 6, 0, 0, 0, -6 -6" transform="rotate(180,442,262)"/><path d="M 436 280v 12h 6a 6 6, 0, 0, 0, 0 -12" transform="rotate(-90,442,286)"/><rect x="436" y="292" width="12" height="12" transform="rotate(0,442,298)"/><path d="M 436 340v 12h 6a 6 6, 0, 0, 0, 0 -12" transform="rotate(180,442,346)"/><rect x="436" y="364" width="12" height="12" transform="rotate(0,442,370)"/><path d="M 436 376v 12h 12v -6a 6 6, 0, 0, 0, -6 -6" transform="rotate(180,442,382)"/><circle cx="442" cy="406" r="6" transform="rotate(0,442,406)"/><circle cx="442" cy="442" r="6" transform="rotate(0,442,442)"/><path d="M 436 460v 12h 6a 6 6, 0, 0, 0, 0 -12" transform="rotate(180,442,466)"/><path d="M 448 124v 12h 6a 6 6, 0, 0, 0, 0 -12" transform="rotate(-90,454,130)"/><path d="M 448 136v 12h 6a 6 6, 0, 0, 0, 0 -12" transform="rotate(90,454,142)"/><rect x="448" y="160" width="12" height="12" transform="rotate(0,454,166)"/><path d="M 448 196v 12h 6a 6 6, 0, 0, 0, 0 -12" transform="rotate(-90,454,202)"/><rect x="448" y="208" width="12" height="12" transform="rotate(0,454,214)"/><rect x="448" y="220" width="12" height="12" transform="rotate(0,454,226)"/><rect x="448" y="232" width="12" height="12" transform="rotate(0,454,238)"/><rect x="448" y="244" width="12" height="12" transform="rotate(0,454,250)"/><rect x="448" y="256" width="12" height="12" transform="rotate(0,454,262)"/><path d="M 448 268v 12h 12v -6a 6 6, 0, 0, 0, -6 -6" transform="rotate(180,454,274)"/><path d="M 448 292v 12h 6a 6 6, 0, 0, 0, 0 -12" transform="rotate(0,454,298)"/><path d="M 448 340v 12h 12v -6a 6 6, 0, 0, 0, -6 -6" transform="rotate(0,454,346)"/><rect x="448" y="352" width="12" height="12" transform="rotate(0,454,358)"/><rect x="448" y="364" width="12" height="12" transform="rotate(0,454,370)"/><rect x="448" y="376" width="12" height="12" transform="rotate(0,454,382)"/><path d="M 448 412v 12h 6a 6 6, 0, 0, 0, 0 -12" transform="rotate(180,454,418)"/><rect x="448" y="460" width="12" height="12" transform="rotate(0,454,466)"/><path d="M 460 148v 12h 6a 6 6, 0, 0, 0, 0 -12" transform="rotate(-90,466,154)"/><path d="M 460 160v 12h 12v -6a 6 6, 0, 0, 0, -6 -6" transform="rotate(90,466,166)"/><circle cx="466" cy="190" r="6" transform="rotate(0,466,190)"/><path d="M 460 220v 12h 12v -6a 6 6, 0, 0, 0, -6 -6" transform="rotate(0,466,226)"/><path d="M 460 232v 12h 12v -6a 6 6, 0, 0, 0, -6 -6" transform="rotate(90,466,238)"/><path d="M 460 268v 12h 6a 6 6, 0, 0, 0, 0 -12" transform="rotate(0,466,274)"/><circle cx="466" cy="310" r="6" transform="rotate(0,466,310)"/><path d="M 460 364v 12h 12v -6a 6 6, 0, 0, 0, -6 -6" transform="rotate(0,466,370)"/><rect x="460" y="376" width="12" height="12" transform="rotate(0,466,382)"/><rect x="460" y="388" width="12" height="12" transform="rotate(0,466,394)"/><rect x="460" y="400" width="12" height="12" transform="rotate(0,466,406)"/><rect x="460" y="412" width="12" height="12" transform="rotate(0,466,418)"/><path d="M 460 424v 12h 6a 6 6, 0, 0, 0, 0 -12" transform="rotate(90,466,430)"/><path d="M 460 460v 12h 6a 6 6, 0, 0, 0, 0 -12" transform="rotate(0,466,466)"/><path clip-rule="evenodd" d="M 28 58v 24a 30 30, 0, 0, 0, 30 30h 24a 30 30, 0, 0, 0, 30 -30v -24a 30 30, 0, 0, 0, -30 -30h -24a 30 30, 0, 0, 0, -30 30M 58 40h 24a 18 18, 0, 0, 1, 18 18v 24a 18 18, 0, 0, 1, -18 18h -24a 18 18, 0, 0, 1, -18 -18v -24a 18 18, 0, 0, 1, 18 -18" transform="rotate(0,70,70)"/><circle cx="70" cy="70" r="18" transform="rotate(0,70,70)"/><path clip-rule="evenodd" d="M 388 58v 24a 30 30, 0, 0, 0, 30 30h 24a 30 30, 0, 0, 0, 30 -30v -24a 30 30, 0, 0, 0, -30 -30h -24a 30 30, 0, 0, 0, -30 30M 418 40h 24a 18 18, 0, 0, 1, 18 18v 24a 18 18, 0, 0, 1, -18 18h -24a 18 18, 0, 0, 1, -18 -18v -24a 18 18, 0, 0, 1, 18 -18" transform="rotate(90,430,70)"/><circle cx="430" cy="70" r="18" transform="rotate(90,430,70)"/><path clip-rule="evenodd" d="M 28 418v 24a 30 30, 0, 0, 0, 30 30h 24a 30 30, 0, 0, 0, 30 -30v -24a 30 30, 0, 0, 0, -30 -30h -24a 30 30, 0, 0, 0, -30 30M 58 400h 24a 18 18, 0, 0, 1, 18 18v 24a 18 18, 0, 0, 1, -18 18h -24a 18 18, 0, 0, 1, -18 -18v -24a 18 18, 0, 0, 1, 18 -18" transform="rotate(-90,70,430)"/><circle cx="70" cy="430" r="18" transform="rotate(-90,70,430)"/></clipPath></defs><rect x="0" y="0" height="500" width="500" clip-path="url('#clip-path-background-color')" fill="#fff"/><rect x="0" y="0" height="500" width="500" clip-path="url('#clip-path-dot-color')" fill="#000000"/></svg>