<?xml version="1.0" standalone="no"?>
<svg xmlns="http://www.w3.org/2000/svg" width="500" height="500"><defs><clipPath id="clip-path-dot-color"><circle cx="34" cy="238" r="6" transform="rotate(0,34,238)"/><path d="M 28 268v 12h 6a 6 6, 0, 0, 0, 0 -12" transform="rotate(180,34,274)"/><path d="M 28 292v 12h 6a 6 6, 0, 0, 0, 0 -12" transform="rotate(-90,34,298)"/><path d="M 28 304v 12h 12v -6a 6 6, 0, 0, 0, -6 -6" transform="rotate(180,34,310)"/><circle cx="34" cy="334" r="6" transform="rotate(0,34,334)"/><path d="M 40 124v 12h 12v -6a 6 6, 0, 0, 0, -6 -6" transform="rotate(-90,46,130)"/><path d="M 40 136v 12h 6a 6 6, 0, 0, 0, 0 -12" transform="rotate(90,46,142)"/><path d="M 40 184v 12h 6a 6 6, 0, 0, 0, 0 -12" transform="rotate(-90,46,190)"/><path d="M 40 196v 12h 6a 6 6, 0, 0, 0, 0 -12" transform="rotate(90,46,202)"/><path d="M 40 256v 12h 12v -6a 6 6, 0, 0, 0, -6 -6" transform="rotate(-90,46,262)"/><rect x="40" y="268" width="12" height="12" transform="rotate(0,46,274)"/><path d="M 40 304v 12h 12v -6a 6 6, 0, 0, 0, -6 -6" transform="rotate(0,46,310)"/><path d="M 40 316v 12h 12v -6a 6 6, 0, 0, 0, -6 -6" transform="rotate(180,46,322)"/><path d="M 40 340v 12h 6a 6 6, 0, 0, 0, 0 -12" transform="rotate(180,46,346)"/><path d="M 52 124v 12h 6a 6 6, 0, 0, 0, 0 -12" transform="rotate(0,58,130)"/><circle cx="58" cy="178" r="6" transform="rotate(0,58,178)"/><circle cx="58" cy="226" r="6" transform="rotate(0,58,226)"/><path d="M 52 244v 12h 6a 6 6, 0, 0, 0, 0 -12" transform="rotate(-90,58,250)"/><rect x="52" y="256" width="12" height="12" transform="rotate(0,58,262)"/><path d="M 52 268v 12h 12v -6a 6 6, 0, 0, 0, -6 -6" transform="rotate(90,58,274)"/><rect x="52" y="316" width="12" height="12" transform="rotate(0,58,322)"/><rect x="52" y="328" width="12" height="12" transform="rotate(0,58,334)"/><rect x="52" y="340" width="12" height="12" transform="rotate(0,58,346)"/><rect x="52" y="352" width="12" height="12" transform="rotate(0,58,358)"/><path d="M 52 364v 12h 6a 6 6, 0, 0, 0, 0 -12" transform="rotate(90,58,370)"/><circle cx="70" cy="166" r="6" transform="rotate(0,70,166)"/><path d="M 64 184v 12h 6a 6 6, 0, 0, 0, 0 -12" transform="rotate(-90,70,190)"/><path d="M 64 196v 12h 12v -6a 6 6, 0, 0, 0, -6 -6" transform="rotate(180,70,202)"/><path d="M 64 304v 12h 6a 6 6, 0, 0, 0, 0 -12" transform="rotate(-90,70,310)"/><rect x="64" y="316" width="12" height="12" transform="rotate(0,70,322)"/><rect x="64" y="328" width="12" height="12" transform="rotate(0,70,334)"/><rect x="64" y="340" width="12" height="12" transform="rotate(0,70,346)"/><rect x="64" y="352" width="12" height="12" transform="rotate(0,70,358)"/><path d="M 76 136v 12h 6a 6 6, 0, 0, 0, 0 -12" transform="rotate(-90,82,142)"/><path d="M 76 148v 12h 6a 6 6, 0, 0, 0, 0 -12" transform="rotate(90,82,154)"/><circle cx="82" cy="178" r="6" transform="rotate(0,82,178)"/><rect x="76" y="196" width="12" height="12" transform="rotate(0,82,202)"/><rect x="76" y="208" width="12" height="12" transform="rotate(0,82,214)"/><rect x="76" y="220" width="12" height="12" transform="rotate(0,82,226)"/><path d="M 76 232v 12h 12v -6a 6 6, 0, 0, 0, -6 -6" transform="rotate(180,82,238)"/><circle cx="82" cy="262" r="6" transform="rotate(0,82,262)"/><circle cx="82" cy="286" r="6" transform="rotate(0,82,286)"/><path d="M 76 316v 12h 6a 6 6, 0, 0, 0, 0 -12" transform="rotate(0,82,322)"/><rect x="76" y="340" width="12" height="12" transform="rotate(0,82,346)"/><path d="M 76 352v 12h 12v -6a 6 6, 0, 0, 0, -6 -6" transform="rotate(90,82,358)"/><circle cx="94" cy="166" r="6" transform="rotate(0,94,166)"/><rect x="88" y="196" width="12" height="12" transform="rotate(0,94,202)"/><rect x="88" y="220" width="12" height="12" transform="rotate(0,94,226)"/><path d="M 88 232v 12h 12v -6a 6 6, 0, 0, 0, -6 -6" transform="rotate(90,94,238)"/><path d="M 88 328v 12h 6a 6 6, 0, 0, 0, 0 -12" transform="rotate(-90,94,334)"/><rect x="88" y="340" width="12" height="12" transform="rotate(0,94,346)"/><circle cx="106" cy="130" r="6" transform="rotate(0,106,130)"/><path d="M 100 148v 12h 6a 6 6, 0, 0, 0, 0 -12" transform="rotate(180,106,154)"/><path d="M 100 172v 12h 6a 6 6, 0, 0, 0, 0 -12" transform="rotate(180,106,178)"/><path d="M 100 196v 12h 6a 6 6, 0, 0, 0, 0 -12" transform="rotate(0,106,202)"/><rect x="100" y="220" width="12" height="12" transform="rotate(0,106,226)"/><path d="M 100 244v 12h 6a 6 6, 0, 0, 0, 0 -12" transform="rotate(180,106,250)"/><circle cx="106" cy="274" r="6" transform="rotate(0,106,274)"/><path d="M 100 292v 12h 6a 6 6, 0, 0, 0, 0 -12" transform="rotate(180,106,298)"/><path d="M 100 316v 12h 6a 6 6, 0, 0, 0, 0 -12" transform="rotate(180,106,322)"/><rect x="100" y="340" width="12" height="12" transform="rotate(0,106,346)"/><path d="M 100 364v 12h 6a 6 6, 0, 0, 0, 0 -12" transform="rotate(180,106,370)"/><path d="M 112 148v 12h 6a 6 6, 0, 0, 0, 0 -12" transform="rotate(0,118,154)"/><path d="M 112 172v 12h 6a 6 6, 0, 0, 0, 0 -12" transform="rotate(0,118,178)"/><path d="M 112 208v 12h 12v -6a 6 6, 0, 0, 0, -6 -6" transform="rotate(-90,118,214)"/><path d="M 112 220v 12h 12v -6a 6 6, 0, 0, 0, -6 -6" transform="rotate(90,118,226)"/><path d="M 112 244v 12h 6a 6 6, 0, 0, 0, 0 -12" transform="rotate(0,118,250)"/><path d="M 112 292v 12h 6a 6 6, 0, 0, 0, 0 -12" transform="rotate(0,118,298)"/><path d="M 112 316v 12h 6a 6 6, 0, 0, 0, 0 -12" transform="rotate(0,118,322)"/><rect x="112" y="340" width="12" height="12" transform="rotate(0,118,346)"/><rect x="112" y="352" width="12" height="12" transform="rotate(0,118,358)"/><rect x="112" y="364" width="12" height="12" transform="rotate(0,118,370)"/><path d="M 124 40v 12h 12v -6a 6 6, 0, 0, 0, -6 -6" transform="rotate(-90,130,46)"/><rect x="124" y="52" width="12" height="12" transform="rotate(0,130,58)"/><path d="M 124 64v 12h 6a 6 6, 0, 0, 0, 0 -12" transform="rotate(90,130,70)"/><path d="M 124 88v 12h 6a 6 6, 0, 0, 0, 0 -12" transform="rotate(-90,130,94)"/><path d="M 124 100v 12h 6a 6 6, 0, 0, 0, 0 -12" transform="rotate(90,130,106)"/><path d="M 124 136v 12h 6a 6 6, 0, 0, 0, 0 -12" transform="rotate(180,130,142)"/><path d="M 124 196v 12h 6a 6 6, 0, 0, 0, 0 -12" transform="rotate(-90,130,202)"/><path d="M 124 208v 12h 12v -6a 6 6, 0, 0, 0, -6 -6" transform="rotate(90,130,214)"/><path d="M 124 256v 12h 6a 6 6, 0, 0, 0, 0 -12" transform="rotate(180,130,262)"/><path d="M 124 340v 12h 12v -6a 6 6, 0, 0, 0, -6 -6" transform="rotate(0,130,346)"/><rect x="124" y="352" width="12" height="12" transform="rotate(0,130,358)"/><rect x="124" y="364" width="12" height="12" transform="rotate(0,130,370)"/><path d="M 124 436v 12h 6a 6 6, 0, 0, 0, 0 -12" transform="rotate(-90,130,442)"/><path d="M 124 448v 12h 12v -6a 6 6, 0, 0, 0, -6 -6" transform="rotate(180,130,454)"/><path d="M 136 28v 12h 12v -6a 6 6, 0, 0, 0, -6 -6" transform="rotate(-90,142,34)"/><path d="M 136 40v 12h 12v -6a 6 6, 0, 0, 0, -6 -6" transform="rotate(90,142,46)"/><circle cx="142" cy="82" r="6" transform="rotate(0,142,82)"/><path d="M 136 112v 12h 6a 6 6, 0, 0, 0, 0 -12" transform="rotate(-90,142,118)"/><rect x="136" y="124" width="12" height="12" transform="rotate(0,142,130)"/><rect x="136" y="136" width="12" height="12" transform="rotate(0,142,142)"/><circle cx="142" cy="190" r="6" transform="rotate(0,142,190)"/><path d="M 136 220v 12h 6a 6 6, 0, 0, 0, 0 -12" transform="rotate(180,142,226)"/><path d="M 136 256v 12h 6a 6 6, 0, 0, 0, 0 -12" transform="rotate(0,142,262)"/><path d="M 136 292v 12h 6a 6 6, 0, 0, 0, 0 -12" transform="rotate(-90,142,298)"/><path d="M 136 304v 12h 12v -6a 6 6, 0, 0, 0, -6 -6" transform="rotate(180,142,310)"/><path d="M 136 328v 12h 6a 6 6, 0, 0, 0, 0 -12" transform="rotate(180,142,334)"/><rect x="136" y="364" width="12" height="12" transform="rotate(0,142,370)"/><rect x="136" y="376" width="12" height="12" transform="rotate(0,142,382)"/><rect x="136" y="388" width="12" height="12" transform="rotate(0,142,394)"/><path d="M 136 400v 12h 12v -6a 6 6, 0, 0, 0, -6 -6" transform="rotate(180,142,406)"/><path d="M 136 448v 12h 6a 6 6, 0, 0, 0, 0 -12" transform="rotate(0,142,454)"/><path d="M 148 28v 12h 6a 6 6, 0, 0, 0, 0 -12" transform="rotate(0,154,34)"/><circle cx="154" cy="70" r="6" transform="rotate(0,154,70)"/><path d="M 148 88v 12h 12v -6a 6 6, 0, 0, 0, -6 -6" transform="rotate(-90,154,94)"/><path d="M 148 100v 12h 6a 6 6, 0, 0, 0, 0 -12" transform="rotate(90,154,106)"/><path d="M 148 136v 12h 6a 6 6, 0, 0, 0, 0 -12" transform="rotate(0,154,142)"/><circle cx="154" cy="178" r="6" transform="rotate(0,154,178)"/><path d="M 148 196v 12h 6a 6 6, 0, 0, 0, 0 -12" transform="rotate(180,154,202)"/><rect x="148" y="220" width="12" height="12" transform="rotate(0,154,226)"/><circle cx="154" cy="274" r="6" transform="rotate(0,154,274)"/><path d="M 148 304v 12h 6a 6 6, 0, 0, 0, 0 -12" transform="rotate(0,154,310)"/><rect x="148" y="328" width="12" height="12" transform="rotate(0,154,334)"/><path d="M 148 364v 12h 12v -6a 6 6, 0, 0, 0, -6 -6" transform="rotate(0,154,370)"/><path d="M 148 376v 12h 12v -6a 6 6, 0, 0, 0, -6 -6" transform="rotate(90,154,382)"/><path d="M 148 400v 12h 12v -6a 6 6, 0, 0, 0, -6 -6" transform="rotate(0,154,406)"/><path d="M 148 412v 12h 12v -6a 6 6, 0, 0, 0, -6 -6" transform="rotate(180,154,418)"/><path d="M 148 436v 12h 6a 6 6, 0, 0, 0, 0 -12" transform="rotate(180,154,442)"/><path d="M 160 52v 12h 6a 6 6, 0, 0, 0, 0 -12" transform="rotate(180,166,58)"/><path d="M 160 88v 12h 6a 6 6, 0, 0, 0, 0 -12" transform="rotate(0,166,94)"/><circle cx="166" cy="118" r="6" transform="rotate(0,166,118)"/><path d="M 160 148v 12h 6a 6 6, 0, 0, 0, 0 -12" transform="rotate(180,166,154)"/><path d="M 160 184v 12h 12v -6a 6 6, 0, 0, 0, -6 -6" transform="rotate(-90,166,190)"/><path d="M 160 196v 12h 12v -6a 6 6, 0, 0, 0, -6 -6" transform="rotate(90,166,202)"/><rect x="160" y="220" width="12" height="12" transform="rotate(0,166,226)"/><path d="M 160 232v 12h 12v -6a 6 6, 0, 0, 0, -6 -6" transform="rotate(180,166,238)"/><path d="M 160 316v 12h 6a 6 6, 0, 0, 0, 0 -12" transform="rotate(-90,166,322)"/><rect x="160" y="328" width="12" height="12" transform="rotate(0,166,334)"/><path d="M 160 340v 12h 12v -6a 6 6, 0, 0, 0, -6 -6" transform="rotate(180,166,346)"/><rect x="160" y="412" width="12" height="12" transform="rotate(0,166,418)"/><rect x="160" y="424" width="12" height="12" transform="rotate(0,166,430)"/><rect x="160" y="436" width="12" height="12" transform="rotate(0,166,442)"/><rect x="160" y="448" width="12" height="12" transform="rotate(0,166,454)"/><path d="M 160 460v 12h 6a 6 6, 0, 0, 0, 0 -12" transform="rotate(90,166,466)"/><circle cx="178" cy="34" r="6" transform="rotate(0,178,34)"/><path d="M 172 52v 12h 6a 6 6, 0, 0, 0, 0 -12" transform="rotate(0,178,58)"/><circle cx="178" cy="106" r="6" transform="rotate(0,178,106)"/><circle cx="178" cy="130" r="6" transform="rotate(0,178,130)"/><rect x="172" y="148" width="12" height="12" transform="rotate(0,178,154)"/><path d="M 172 160v 12h 12v -6a 6 6, 0, 0, 0, -6 -6" transform="rotate(180,178,166)"/><rect x="172" y="184" width="12" height="12" transform="rotate(0,178,190)"/><rect x="172" y="220" width="12" height="12" transform="rotate(0,178,226)"/><path d="M 172 232v 12h 12v -6a 6 6, 0, 0, 0, -6 -6" transform="rotate(90,178,238)"/><circle cx="178" cy="262" r="6" transform="rotate(0,178,262)"/><circle cx="178" cy="298" r="6" transform="rotate(0,178,298)"/><rect x="172" y="328" width="12" height="12" transform="rotate(0,178,334)"/><rect x="172" y="340" width="12" height="12" transform="rotate(0,178,346)"/><path d="M 172 352v 12h 12v -6a 6 6, 0, 0, 0, -6 -6" transform="rotate(180,178,358)"/><path d="M 172 376v 12h 6a 6 6, 0, 0, 0, 0 -12" transform="rotate(-90,178,382)"/><path d="M 172 388v 12h 12v -6a 6 6, 0, 0, 0, -6 -6" transform="rotate(180,178,394)"/><rect x="172" y="412" width="12" height="12" transform="rotate(0,178,418)"/><rect x="172" y="436" width="12" height="12" transform="rotate(0,178,442)"/><rect x="172" y="448" width="12" height="12" transform="rotate(0,178,454)"/><circle cx="190" cy="70" r="6" transform="rotate(0,190,70)"/><path d="M 184 88v 12h 6a 6 6, 0, 0, 0, 0 -12" transform="rotate(180,190,94)"/><path d="M 184 112v 12h 6a 6 6, 0, 0, 0, 0 -12" transform="rotate(180,190,118)"/><path d="M 184 136v 12h 6a 6 6, 0, 0, 0, 0 -12" transform="rotate(-90,190,142)"/><rect x="184" y="148" width="12" height="12" transform="rotate(0,190,154)"/><rect x="184" y="160" width="12" height="12" transform="rotate(0,190,166)"/><path d="M 184 184v 12h 6a 6 6, 0, 0, 0, 0 -12" transform="rotate(0,190,190)"/><rect x="184" y="220" width="12" height="12" transform="rotate(0,190,226)"/><circle cx="190" cy="250" r="6" transform="rotate(0,190,250)"/><path d="M 184 316v 12h 12v -6a 6 6, 0, 0, 0, -6 -6" transform="rotate(-90,190,322)"/><path d="M 184 328v 12h 12v -6a 6 6, 0, 0, 0, -6 -6" transform="rotate(90,190,334)"/><path d="M 184 352v 12h 12v -6a 6 6, 0, 0, 0, -6 -6" transform="rotate(0,190,358)"/><path d="M 184 364v 12h 6a 6 6, 0, 0, 0, 0 -12" transform="rotate(90,190,370)"/><path d="M 184 388v 12h 12v -6a 6 6, 0, 0, 0, -6 -6" transform="rotate(0,190,394)"/><rect x="184" y="400" width="12" height="12" transform="rotate(0,190,406)"/><rect x="184" y="412" width="12" height="12" transform="rotate(0,190,418)"/><rect x="184" y="436" width="12" height="12" transform="rotate(0,190,442)"/><rect x="184" y="448" width="12" height="12" transform="rotate(0,190,454)"/><path d="M 184 460v 12h 6a 6 6, 0, 0, 0, 0 -12" transform="rotate(90,190,466)"/><circle cx="202" cy="34" r="6" transform="rotate(0,202,34)"/><path d="M 196 76v 12h 12v -6a 6 6, 0, 0, 0, -6 -6" transform="rotate(-90,202,82)"/><rect x="196" y="88" width="12" height="12" transform="rotate(0,202,94)"/><rect x="196" y="100" width="12" height="12" transform="rotate(0,202,106)"/><rect x="196" y="112" width="12" height="12" transform="rotate(0,202,118)"/><path d="M 196 124v 12h 6a 6 6, 0, 0, 0, 0 -12" transform="rotate(90,202,130)"/><path d="M 196 148v 12h 12v -6a 6 6, 0, 0, 0, -6 -6" transform="rotate(0,202,154)"/><rect x="196" y="160" width="12" height="12" transform="rotate(0,202,166)"/><path d="M 196 196v 12h 6a 6 6, 0, 0, 0, 0 -12" transform="rotate(-90,202,202)"/><rect x="196" y="208" width="12" height="12" transform="rotate(0,202,214)"/><path d="M 196 220v 12h 12v -6a 6 6, 0, 0, 0, -6 -6" transform="rotate(90,202,226)"/><path d="M 196 268v 12h 6a 6 6, 0, 0, 0, 0 -12" transform="rotate(180,202,274)"/><path d="M 196 292v 12h 6a 6 6, 0, 0, 0, 0 -12" transform="rotate(180,202,298)"/><rect x="196" y="316" width="12" height="12" transform="rotate(0,202,322)"/><path d="M 196 340v 12h 6a 6 6, 0, 0, 0, 0 -12" transform="rotate(180,202,346)"/><path d="M 196 412v 12h 6a 6 6, 0, 0, 0, 0 -12" transform="rotate(0,202,418)"/><path d="M 196 436v 12h 12v -6a 6 6, 0, 0, 0, -6 -6" transform="rotate(0,202,442)"/><path d="M 196 448v 12h 12v -6a 6 6, 0, 0, 0, -6 -6" transform="rotate(90,202,454)"/><circle cx="214" cy="46" r="6" transform="rotate(0,214,46)"/><rect x="208" y="76" width="12" height="12" transform="rotate(0,214,82)"/><rect x="208" y="88" width="12" height="12" transform="rotate(0,214,94)"/><rect x="208" y="160" width="12" height="12" transform="rotate(0,214,166)"/><circle cx="214" cy="190" r="6" transform="rotate(0,214,190)"/><path d="M 208 244v 12h 6a 6 6, 0, 0, 0, 0 -12" transform="rotate(180,214,250)"/><rect x="208" y="268" width="12" height="12" transform="rotate(0,214,274)"/><rect x="208" y="280" width="12" height="12" transform="rotate(0,214,286)"/><rect x="208" y="292" width="12" height="12" transform="rotate(0,214,298)"/><rect x="208" y="316" width="12" height="12" transform="rotate(0,214,322)"/><rect x="208" y="340" width="12" height="12" transform="rotate(0,214,346)"/><rect x="208" y="352" width="12" height="12" transform="rotate(0,214,358)"/><rect x="208" y="364" width="12" height="12" transform="rotate(0,214,370)"/><path d="M 208 376v 12h 6a 6 6, 0, 0, 0, 0 -12" transform="rotate(90,214,382)"/><path d="M 220 64v 12h 12v -6a 6 6, 0, 0, 0, -6 -6" transform="rotate(-90,226,70)"/><rect x="220" y="76" width="12" height="12" transform="rotate(0,226,82)"/><rect x="220" y="88" width="12" height="12" transform="rotate(0,226,94)"/><path d="M 220 100v 12h 6a 6 6, 0, 0, 0, 0 -12" transform="rotate(90,226,106)"/><path d="M 220 124v 12h 12v -6a 6 6, 0, 0, 0, -6 -6" transform="rotate(-90,226,130)"/><rect x="220" y="136" width="12" height="12" transform="rotate(0,226,142)"/><rect x="220" y="148" width="12" height="12" transform="rotate(0,226,154)"/><rect x="220" y="160" width="12" height="12" transform="rotate(0,226,166)"/><path d="M 220 172v 12h 6a 6 6, 0, 0, 0, 0 -12" transform="rotate(90,226,178)"/><path d="M 220 196v 12h 6a 6 6, 0, 0, 0, 0 -12" transform="rotate(180,226,202)"/><circle cx="226" cy="226" r="6" transform="rotate(0,226,226)"/><path d="M 220 244v 12h 6a 6 6, 0, 0, 0, 0 -12" transform="rotate(0,226,250)"/><path d="M 220 268v 12h 12v -6a 6 6, 0, 0, 0, -6 -6" transform="rotate(0,226,274)"/><rect x="220" y="280" width="12" height="12" transform="rotate(0,226,286)"/><rect x="220" y="292" width="12" height="12" transform="rotate(0,226,298)"/><rect x="220" y="304" width="12" height="12" transform="rotate(0,226,310)"/><rect x="220" y="316" width="12" height="12" transform="rotate(0,226,322)"/><rect x="220" y="328" width="12" height="12" transform="rotate(0,226,334)"/><rect x="220" y="340" width="12" height="12" transform="rotate(0,226,346)"/><rect x="220" y="352" width="12" height="12" transform="rotate(0,226,358)"/><path d="M 220 424v 12h 12v -6a 6 6, 0, 0, 0, -6 -6" transform="rotate(-90,226,430)"/><rect x="220" y="436" width="12" height="12" transform="rotate(0,226,442)"/><path d="M 220 448v 12h 6a 6 6, 0, 0, 0, 0 -12" transform="rotate(90,226,454)"/><rect x="232" y="64" width="12" height="12" transform="rotate(0,238,70)"/><path d="M 232 76v 12h 12v -6a 6 6, 0, 0, 0, -6 -6" transform="rotate(90,238,82)"/><path d="M 232 112v 12h 12v -6a 6 6, 0, 0, 0, -6 -6" transform="rotate(-90,238,118)"/><rect x="232" y="124" width="12" height="12" transform="rotate(0,238,130)"/><rect x="232" y="136" width="12" height="12" transform="rotate(0,238,142)"/><path d="M 232 148v 12h 12v -6a 6 6, 0, 0, 0, -6 -6" transform="rotate(90,238,154)"/><path d="M 232 196v 12h 12v -6a 6 6, 0, 0, 0, -6 -6" transform="rotate(0,238,202)"/><path d="M 232 208v 12h 6a 6 6, 0, 0, 0, 0 -12" transform="rotate(90,238,214)"/><path d="M 232 280v 12h 6a 6 6, 0, 0, 0, 0 -12" transform="rotate(0,238,286)"/><path d="M 232 304v 12h 6a 6 6, 0, 0, 0, 0 -12" transform="rotate(0,238,310)"/><rect x="232" y="328" width="12" height="12" transform="rotate(0,238,334)"/><rect x="232" y="340" width="12" height="12" transform="rotate(0,238,346)"/><rect x="232" y="352" width="12" height="12" transform="rotate(0,238,358)"/><path d="M 232 388v 12h 6a 6 6, 0, 0, 0, 0 -12" transform="rotate(180,238,394)"/><path d="M 232 424v 12h 12v -6a 6 6, 0, 0, 0, -6 -6" transform="rotate(0,238,430)"/><path d="M 232 436v 12h 12v -6a 6 6, 0, 0, 0, -6 -6" transform="rotate(90,238,442)"/><path d="M 232 460v 12h 6a 6 6, 0, 0, 0, 0 -12" transform="rotate(180,238,466)"/><path d="M 244 28v 12h 6a 6 6, 0, 0, 0, 0 -12" transform="rotate(-90,250,34)"/><path d="M 244 40v 12h 6a 6 6, 0, 0, 0, 0 -12" transform="rotate(90,250,46)"/><rect x="244" y="64" width="12" height="12" transform="rotate(0,250,70)"/><path d="M 244 88v 12h 12v -6a 6 6, 0, 0, 0, -6 -6" transform="rotate(-90,250,94)"/><rect x="244" y="100" width="12" height="12" transform="rotate(0,250,106)"/><rect x="244" y="112" width="12" height="12" transform="rotate(0,250,118)"/><path d="M 244 160v 12h 12v -6a 6 6, 0, 0, 0, -6 -6" transform="rotate(-90,250,166)"/><rect x="244" y="172" width="12" height="12" transform="rotate(0,250,178)"/><path d="M 244 184v 12h 12v -6a 6 6, 0, 0, 0, -6 -6" transform="rotate(180,250,190)"/><circle cx="250" cy="238" r="6" transform="rotate(0,250,238)"/><circle cx="250" cy="262" r="6" transform="rotate(0,250,262)"/><circle cx="250" cy="298" r="6" transform="rotate(0,250,298)"/><path d="M 244 328v 12h 6a 6 6, 0, 0, 0, 0 -12" transform="rotate(0,250,334)"/><path d="M 244 352v 12h 12v -6a 6 6, 0, 0, 0, -6 -6" transform="rotate(0,250,358)"/><rect x="244" y="364" width="12" height="12" transform="rotate(0,250,370)"/><rect x="244" y="376" width="12" height="12" transform="rotate(0,250,382)"/><path d="M 244 388v 12h 12v -6a 6 6, 0, 0, 0, -6 -6" transform="rotate(90,250,394)"/><circle cx="250" cy="418" r="6" transform="rotate(0,250,418)"/><path d="M 244 448v 12h 6a 6 6, 0, 0, 0, 0 -12" transform="rotate(-90,250,454)"/><rect x="244" y="460" width="12" height="12" transform="rotate(0,250,466)"/><path d="M 256 52v 12h 12v -6a 6 6, 0, 0, 0, -6 -6" transform="rotate(-90,262,58)"/><rect x="256" y="64" width="12" height="12" transform="rotate(0,262,70)"/><rect x="256" y="76" width="12" height="12" transform="rotate(0,262,82)"/><path d="M 256 88v 12h 12v -6a 6 6, 0, 0, 0, -6 -6" transform="rotate(90,262,94)"/><path d="M 256 112v 12h 12v -6a 6 6, 0, 0, 0, -6 -6" transform="rotate(0,262,118)"/><rect x="256" y="124" width="12" height="12" transform="rotate(0,262,130)"/><rect x="256" y="136" width="12" height="12" transform="rotate(0,262,142)"/><rect x="256" y="148" width="12" height="12" transform="rotate(0,262,154)"/><rect x="256" y="160" width="12" height="12" transform="rotate(0,262,166)"/><path d="M 256 184v 12h 6a 6 6, 0, 0, 0, 0 -12" transform="rotate(0,262,190)"/><path d="M 256 208v 12h 12v -6a 6 6, 0, 0, 0, -6 -6" transform="rotate(-90,262,214)"/><path d="M 256 220v 12h 6a 6 6, 0, 0, 0, 0 -12" transform="rotate(90,262,226)"/><path d="M 256 244v 12h 6a 6 6, 0, 0, 0, 0 -12" transform="rotate(180,262,250)"/><path d="M 256 304v 12h 12v -6a 6 6, 0, 0, 0, -6 -6" transform="rotate(-90,262,310)"/><path d="M 256 316v 12h 6a 6 6, 0, 0, 0, 0 -12" transform="rotate(90,262,322)"/><rect x="256" y="364" width="12" height="12" transform="rotate(0,262,370)"/><circle cx="262" cy="406" r="6" transform="rotate(0,262,406)"/><circle cx="262" cy="430" r="6" transform="rotate(0,262,430)"/><rect x="256" y="460" width="12" height="12" transform="rotate(0,262,466)"/><path d="M 268 40v 12h 6a 6 6, 0, 0, 0, 0 -12" transform="rotate(-90,274,46)"/><rect x="268" y="52" width="12" height="12" transform="rotate(0,274,58)"/><path d="M 268 64v 12h 12v -6a 6 6, 0, 0, 0, -6 -6" transform="rotate(90,274,70)"/><circle cx="274" cy="106" r="6" transform="rotate(0,274,106)"/><path d="M 268 124v 12h 6a 6 6, 0, 0, 0, 0 -12" transform="rotate(0,274,130)"/><path d="M 268 160v 12h 6a 6 6, 0, 0, 0, 0 -12" transform="rotate(0,274,166)"/><rect x="268" y="208" width="12" height="12" transform="rotate(0,274,214)"/><path d="M 268 232v 12h 6a 6 6, 0, 0, 0, 0 -12" transform="rotate(-90,274,238)"/><rect x="268" y="244" width="12" height="12" transform="rotate(0,274,250)"/><path d="M 268 256v 12h 6a 6 6, 0, 0, 0, 0 -12" transform="rotate(90,274,262)"/><circle cx="274" cy="286" r="6" transform="rotate(0,274,286)"/><rect x="268" y="304" width="12" height="12" transform="rotate(0,274,310)"/><path d="M 268 340v 12h 6a 6 6, 0, 0, 0, 0 -12" transform="rotate(180,274,346)"/><path d="M 268 364v 12h 6a 6 6, 0, 0, 0, 0 -12" transform="rotate(0,274,370)"/><circle cx="274" cy="418" r="6" transform="rotate(0,274,418)"/><path d="M 268 460v 12h 6a 6 6, 0, 0, 0, 0 -12" transform="rotate(0,274,466)"/><path d="M 280 28v 12h 6a 6 6, 0, 0, 0, 0 -12" transform="rotate(180,286,34)"/><rect x="280" y="52" width="12" height="12" transform="rotate(0,286,58)"/><circle cx="286" cy="142" r="6" transform="rotate(0,286,142)"/><path d="M 280 196v 12h 12v -6a 6 6, 0, 0, 0, -6 -6" transform="rotate(-90,286,202)"/><path d="M 280 208v 12h 12v -6a 6 6, 0, 0, 0, -6 -6" transform="rotate(90,286,214)"/><path d="M 280 268v 12h 6a 6 6, 0, 0, 0, 0 -12" transform="rotate(180,286,274)"/><path d="M 280 292v 12h 12v -6a 6 6, 0, 0, 0, -6 -6" transform="rotate(-90,286,298)"/><rect x="280" y="304" width="12" height="12" transform="rotate(0,286,310)"/><path d="M 280 328v 12h 6a 6 6, 0, 0, 0, 0 -12" transform="rotate(-90,286,334)"/><rect x="280" y="340" width="12" height="12" transform="rotate(0,286,346)"/><circle cx="286" cy="382" r="6" transform="rotate(0,286,382)"/><circle cx="286" cy="406" r="6" transform="rotate(0,286,406)"/><rect x="292" y="28" width="12" height="12" transform="rotate(0,298,34)"/><rect x="292" y="52" width="12" height="12" transform="rotate(0,298,58)"/><path d="M 292 88v 12h 6a 6 6, 0, 0, 0, 0 -12" transform="rotate(-90,298,94)"/><rect x="292" y="100" width="12" height="12" transform="rotate(0,298,106)"/><path d="M 292 112v 12h 12v -6a 6 6, 0, 0, 0, -6 -6" transform="rotate(180,298,118)"/><circle cx="298" cy="166" r="6" transform="rotate(0,298,166)"/><path d="M 292 184v 12h 12v -6a 6 6, 0, 0, 0, -6 -6" transform="rotate(-90,298,190)"/><path d="M 292 196v 12h 12v -6a 6 6, 0, 0, 0, -6 -6" transform="rotate(90,298,202)"/><circle cx="298" cy="226" r="6" transform="rotate(0,298,226)"/><path d="M 292 244v 12h 6a 6 6, 0, 0, 0, 0 -12" transform="rotate(180,298,250)"/><path d="M 292 268v 12h 12v -6a 6 6, 0, 0, 0, -6 -6" transform="rotate(0,298,274)"/><rect x="292" y="280" width="12" height="12" transform="rotate(0,298,286)"/><rect x="292" y="292" width="12" height="12" transform="rotate(0,298,298)"/><rect x="292" y="304" width="12" height="12" transform="rotate(0,298,310)"/><path d="M 292 316v 12h 12v -6a 6 6, 0, 0, 0, -6 -6" transform="rotate(180,298,322)"/><rect x="292" y="340" width="12" height="12" transform="rotate(0,298,346)"/><path d="M 292 388v 12h 6a 6 6, 0, 0, 0, 0 -12" transform="rotate(180,298,394)"/><path d="M 292 412v 12h 6a 6 6, 0, 0, 0, 0 -12" transform="rotate(-90,298,418)"/><path d="M 292 424v 12h 12v -6a 6 6, 0, 0, 0, -6 -6" transform="rotate(180,298,430)"/><circle cx="298" cy="454" r="6" transform="rotate(0,298,454)"/><path d="M 304 28v 12h 6a 6 6, 0, 0, 0, 0 -12" transform="rotate(0,310,34)"/><path d="M 304 52v 12h 12v -6a 6 6, 0, 0, 0, -6 -6" transform="rotate(0,310,58)"/><path d="M 304 64v 12h 6a 6 6, 0, 0, 0, 0 -12" transform="rotate(90,310,70)"/><rect x="304" y="112" width="12" height="12" transform="rotate(0,310,118)"/><path d="M 304 124v 12h 12v -6a 6 6, 0, 0, 0, -6 -6" transform="rotate(180,310,130)"/><path d="M 304 172v 12h 6a 6 6, 0, 0, 0, 0 -12" transform="rotate(-90,310,178)"/><rect x="304" y="184" width="12" height="12" transform="rotate(0,310,190)"/><rect x="304" y="244" width="12" height="12" transform="rotate(0,310,250)"/><rect x="304" y="304" width="12" height="12" transform="rotate(0,310,310)"/><rect x="304" y="316" width="12" height="12" transform="rotate(0,310,322)"/><rect x="304" y="328" width="12" height="12" transform="rotate(0,310,334)"/><rect x="304" y="340" width="12" height="12" transform="rotate(0,310,346)"/><rect x="304" y="352" width="12" height="12" transform="rotate(0,310,358)"/><rect x="304" y="364" width="12" height="12" transform="rotate(0,310,370)"/><rect x="304" y="376" width="12" height="12" transform="rotate(0,310,382)"/><rect x="304" y="388" width="12" height="12" transform="rotate(0,310,394)"/><path d="M 304 424v 12h 12v -6a 6 6, 0, 0, 0, -6 -6" transform="rotate(0,310,430)"/><path d="M 304 436v 12h 12v -6a 6 6, 0, 0, 0, -6 -6" transform="rotate(180,310,442)"/><path d="M 304 460v 12h 6a 6 6, 0, 0, 0, 0 -12" transform="rotate(180,310,466)"/><path d="M 316 88v 12h 6a 6 6, 0, 0, 0, 0 -12" transform="rotate(-90,322,94)"/><rect x="316" y="100" width="12" height="12" transform="rotate(0,322,106)"/><rect x="316" y="112" width="12" height="12" transform="rotate(0,322,118)"/><rect x="316" y="124" width="12" height="12" transform="rotate(0,322,130)"/><path d="M 316 184v 12h 6a 6 6, 0, 0, 0, 0 -12" transform="rotate(0,322,190)"/><path d="M 316 232v 12h 6a 6 6, 0, 0, 0, 0 -12" transform="rotate(-90,322,238)"/><rect x="316" y="244" width="12" height="12" transform="rotate(0,322,250)"/><rect x="316" y="256" width="12" height="12" transform="rotate(0,322,262)"/><path d="M 316 268v 12h 6a 6 6, 0, 0, 0, 0 -12" transform="rotate(90,322,274)"/><path d="M 316 292v 12h 12v -6a 6 6, 0, 0, 0, -6 -6" transform="rotate(-90,322,298)"/><path d="M 316 304v 12h 12v -6a 6 6, 0, 0, 0, -6 -6" transform="rotate(90,322,310)"/><path d="M 316 328v 12h 12v -6a 6 6, 0, 0, 0, -6 -6" transform="rotate(0,322,334)"/><path d="M 316 340v 12h 12v -6a 6 6, 0, 0, 0, -6 -6" transform="rotate(90,322,346)"/><rect x="316" y="376" width="12" height="12" transform="rotate(0,322,382)"/><rect x="316" y="388" width="12" height="12" transform="rotate(0,322,394)"/><path d="M 316 412v 12h 6a 6 6, 0, 0, 0, 0 -12" transform="rotate(180,322,418)"/><path d="M 316 436v 12h 6a 6 6, 0, 0, 0, 0 -12" transform="rotate(0,322,442)"/><rect x="316" y="460" width="12" height="12" transform="rotate(0,322,466)"/><path d="M 328 40v 12h 12v -6a 6 6, 0, 0, 0, -6 -6" transform="rotate(-90,334,46)"/><path d="M 328 52v 12h 6a 6 6, 0, 0, 0, 0 -12" transform="rotate(90,334,58)"/><path d="M 328 76v 12h 6a 6 6, 0, 0, 0, 0 -12" transform="rotate(180,334,82)"/><rect x="328" y="112" width="12" height="12" transform="rotate(0,334,118)"/><rect x="328" y="124" width="12" height="12" transform="rotate(0,334,130)"/><path d="M 328 160v 12h 6a 6 6, 0, 0, 0, 0 -12" transform="rotate(180,334,166)"/><circle cx="334" cy="226" r="6" transform="rotate(0,334,226)"/><path d="M 328 244v 12h 6a 6 6, 0, 0, 0, 0 -12" transform="rotate(0,334,250)"/><rect x="328" y="292" width="12" height="12" transform="rotate(0,334,298)"/><path d="M 328 316v 12h 6a 6 6, 0, 0, 0, 0 -12" transform="rotate(180,334,322)"/><path d="M 328 352v 12h 6a 6 6, 0, 0, 0, 0 -12" transform="rotate(-90,334,358)"/><rect x="328" y="364" width="12" height="12" transform="rotate(0,334,370)"/><rect x="328" y="376" width="12" height="12" transform="rotate(0,334,382)"/><rect x="328" y="388" width="12" height="12" transform="rotate(0,334,394)"/><rect x="328" y="400" width="12" height="12" transform="rotate(0,334,406)"/><rect x="328" y="412" width="12" height="12" transform="rotate(0,334,418)"/><path d="M 328 424v 12h 12v -6a 6 6, 0, 0, 0, -6 -6" transform="rotate(180,334,430)"/><path d="M 328 448v 12h 12v -6a 6 6, 0, 0, 0, -6 -6" transform="rotate(-90,334,454)"/><path d="M 328 460v 12h 12v -6a 6 6, 0, 0, 0, -6 -6" transform="rotate(90,334,466)"/><path d="M 340 40v 12h 6a 6 6, 0, 0, 0, 0 -12" transform="rotate(0,346,46)"/><path d="M 340 64v 12h 12v -6a 6 6, 0, 0, 0, -6 -6" transform="rotate(-90,346,70)"/><rect x="340" y="76" width="12" height="12" transform="rotate(0,346,82)"/><rect x="340" y="88" width="12" height="12" transform="rotate(0,346,94)"/><rect x="340" y="100" width="12" height="12" transform="rotate(0,346,106)"/><rect x="340" y="112" width="12" height="12" transform="rotate(0,346,118)"/><rect x="340" y="124" width="12" height="12" transform="rotate(0,346,130)"/><rect x="340" y="136" width="12" height="12" transform="rotate(0,346,142)"/><rect x="340" y="148" width="12" height="12" transform="rotate(0,346,154)"/><rect x="340" y="160" width="12" height="12" transform="rotate(0,346,166)"/><path d="M 340 172v 12h 6a 6 6, 0, 0, 0, 0 -12" transform="rotate(90,346,178)"/><circle cx="346" cy="202" r="6" transform="rotate(0,346,202)"/><path d="M 340 256v 12h 6a 6 6, 0, 0, 0, 0 -12" transform="rotate(180,346,262)"/><path d="M 340 280v 12h 12v -6a 6 6, 0, 0, 0, -6 -6" transform="rotate(-90,346,286)"/><path d="M 340 292v 12h 12v -6a 6 6, 0, 0, 0, -6 -6" transform="rotate(90,346,298)"/><path d="M 340 316v 12h 12v -6a 6 6, 0, 0, 0, -6 -6" transform="rotate(0,346,322)"/><path d="M 340 328v 12h 6a 6 6, 0, 0, 0, 0 -12" transform="rotate(90,346,334)"/><rect x="340" y="400" width="12" height="12" transform="rotate(0,346,406)"/><path d="M 340 424v 12h 12v -6a 6 6, 0, 0, 0, -6 -6" transform="rotate(0,346,430)"/><rect x="340" y="436" width="12" height="12" transform="rotate(0,346,442)"/><rect x="340" y="448" width="12" height="12" transform="rotate(0,346,454)"/><circle cx="358" cy="34" r="6" transform="rotate(0,358,34)"/><path d="M 352 52v 12h 6a 6 6, 0, 0, 0, 0 -12" transform="rotate(-90,358,58)"/><rect x="352" y="64" width="12" height="12" transform="rotate(0,358,70)"/><rect x="352" y="76" width="12" height="12" transform="rotate(0,358,82)"/><path d="M 352 88v 12h 12v -6a 6 6, 0, 0, 0, -6 -6" transform="rotate(90,358,94)"/><path d="M 352 112v 12h 12v -6a 6 6, 0, 0, 0, -6 -6" transform="rotate(0,358,118)"/><path d="M 352 124v 12h 12v -6a 6 6, 0, 0, 0, -6 -6" transform="rotate(90,358,130)"/><path d="M 352 148v 12h 12v -6a 6 6, 0, 0, 0, -6 -6" transform="rotate(0,358,154)"/><rect x="352" y="160" width="12" height="12" transform="rotate(0,358,166)"/><circle cx="358" cy="238" r="6" transform="rotate(0,358,238)"/><rect x="352" y="256" width="12" height="12" transform="rotate(0,358,262)"/><rect x="352" y="280" width="12" height="12" transform="rotate(0,358,286)"/><path d="M 352 352v 12h 12v -6a 6 6, 0, 0, 0, -6 -6" transform="rotate(-90,358,358)"/><rect x="352" y="364" width="12" height="12" transform="rotate(0,358,370)"/><path d="M 352 376v 12h 12v -6a 6 6, 0, 0, 0, -6 -6" transform="rotate(180,358,382)"/><rect x="352" y="400" width="12" height="12" transform="rotate(0,358,406)"/><rect x="352" y="448" width="12" height="12" transform="rotate(0,358,454)"/><path d="M 364 64v 12h 6a 6 6, 0, 0, 0, 0 -12" transform="rotate(0,370,70)"/><circle cx="370" cy="106" r="6" transform="rotate(0,370,106)"/><path d="M 364 160v 12h 12v -6a 6 6, 0, 0, 0, -6 -6" transform="rotate(0,370,166)"/><path d="M 364 172v 12h 12v -6a 6 6, 0, 0, 0, -6 -6" transform="rotate(180,370,178)"/><circle cx="370" cy="214" r="6" transform="rotate(0,370,214)"/><path d="M 364 244v 12h 6a 6 6, 0, 0, 0, 0 -12" transform="rotate(-90,370,250)"/><rect x="364" y="256" width="12" height="12" transform="rotate(0,370,262)"/><rect x="364" y="268" width="12" height="12" transform="rotate(0,370,274)"/><rect x="364" y="280" width="12" height="12" transform="rotate(0,370,286)"/><rect x="364" y="292" width="12" height="12" transform="rotate(0,370,298)"/><path d="M 364 304v 12h 12v -6a 6 6, 0, 0, 0, -6 -6" transform="rotate(180,370,310)"/><circle cx="370" cy="334" r="6" transform="rotate(0,370,334)"/><path d="M 364 352v 12h 12v -6a 6 6, 0, 0, 0, -6 -6" transform="rotate(0,370,358)"/><rect x="364" y="364" width="12" height="12" transform="rotate(0,370,370)"/><rect x="364" y="376" width="12" height="12" transform="rotate(0,370,382)"/><rect x="364" y="388" width="12" height="12" transform="rotate(0,370,394)"/><rect x="364" y="400" width="12" height="12" transform="rotate(0,370,406)"/><rect x="364" y="412" width="12" height="12" transform="rotate(0,370,418)"/><rect x="364" y="424" width="12" height="12" transform="rotate(0,370,430)"/><rect x="364" y="436" width="12" height="12" transform="rotate(0,370,442)"/><rect x="364" y="448" width="12" height="12" transform="rotate(0,370,454)"/><path d="M 376 124v 12h 6a 6 6, 0, 0, 0, 0 -12" transform="rotate(-90,382,130)"/><path d="M 376 136v 12h 6a 6 6, 0, 0, 0, 0 -12" transform="rotate(90,382,142)"/><path d="M 376 172v 12h 12v -6a 6 6, 0, 0, 0, -6 -6" transform="rotate(0,382,178)"/><path d="M 376 184v 12h 6a 6 6, 0, 0, 0, 0 -12" transform="rotate(90,382,190)"/><path d="M 376 220v 12h 6a 6 6, 0, 0, 0, 0 -12" transform="rotate(180,382,226)"/><path d="M 376 292v 12h 12v -6a 6 6, 0, 0, 0, -6 -6" transform="rotate(0,382,298)"/><rect x="376" y="304" width="12" height="12" transform="rotate(0,382,310)"/><path d="M 376 316v 12h 12v -6a 6 6, 0, 0, 0, -6 -6" transform="rotate(180,382,322)"/><rect x="376" y="364" width="12" height="12" transform="rotate(0,382,370)"/><rect x="376" y="412" width="12" height="12" transform="rotate(0,382,418)"/><rect x="376" y="424" width="12" height="12" transform="rotate(0,382,430)"/><rect x="376" y="436" width="12" height="12" transform="rotate(0,382,442)"/><rect x="376" y="448" width="12" height="12" transform="rotate(0,382,454)"/><path d="M 376 460v 12h 12v -6a 6 6, 0, 0, 0, -6 -6" transform="rotate(180,382,466)"/><circle cx="394" cy="166" r="6" transform="rotate(0,394,166)"/><path d="M 388 196v 12h 6a 6 6, 0, 0, 0, 0 -12" transform="rotate(-90,394,202)"/><rect x="388" y="208" width="12" height="12" transform="rotate(0,394,214)"/><path d="M 388 220v 12h 12v -6a 6 6, 0, 0, 0, -6 -6" transform="rotate(90,394,226)"/><path d="M 388 244v 12h 6a 6 6, 0, 0, 0, 0 -12" transform="rotate(180,394,250)"/><rect x="388" y="316" width="12" height="12" transform="rotate(0,394,322)"/><rect x="388" y="328" width="12" height="12" transform="rotate(0,394,334)"/><path d="M 388 340v 12h 6a 6 6, 0, 0, 0, 0 -12" transform="rotate(90,394,346)"/><rect x="388" y="364" width="12" height="12" transform="rotate(0,394,370)"/><circle cx="394" cy="394" r="6" transform="rotate(0,394,394)"/><rect x="388" y="412" width="12" height="12" transform="rotate(0,394,418)"/><rect x="388" y="424" width="12" height="12" transform="rotate(0,394,430)"/><rect x="388" y="448" width="12" height="12" transform="rotate(0,394,454)"/><path d="M 388 460v 12h 12v -6a 6 6, 0, 0, 0, -6 -6" transform="rotate(90,394,466)"/><path d="M 400 124v 12h 6a 6 6, 0, 0, 0, 0 -12" transform="rotate(-90,406,130)"/><rect x="400" y="136" width="12" height="12" transform="rotate(0,406,142)"/><path d="M 400 148v 12h 6a 6 6, 0, 0, 0, 0 -12" transform="rotate(90,406,154)"/><path d="M 400 184v 12h 6a 6 6, 0, 0, 0, 0 -12" transform="rotate(180,406,190)"/><path d="M 400 232v 12h 12v -6a 6 6, 0, 0, 0, -6 -6" transform="rotate(-90,406,238)"/><rect x="400" y="244" width="12" height="12" transform="rotate(0,406,250)"/><circle cx="406" cy="274" r="6" transform="rotate(0,406,274)"/><path d="M 400 304v 12h 12v -6a 6 6, 0, 0, 0, -6 -6" transform="rotate(-90,406,310)"/><path d="M 400 316v 12h 12v -6a 6 6, 0, 0, 0, -6 -6" transform="rotate(90,406,322)"/><path d="M 400 352v 12h 6a 6 6, 0, 0, 0, 0 -12" transform="rotate(-90,406,358)"/><rect x="400" y="364" width="12" height="12" transform="rotate(0,406,370)"/><rect x="400" y="412" width="12" height="12" transform="rotate(0,406,418)"/><rect x="400" y="424" width="12" height="12" transform="rotate(0,406,430)"/><path d="M 400 448v 12h 6a 6 6, 0, 0, 0, 0 -12" transform="rotate(0,406,454)"/><path d="M 412 136v 12h 6a 6 6, 0, 0, 0, 0 -12" transform="rotate(0,418,142)"/><path d="M 412 172v 12h 12v -6a 6 6, 0, 0, 0, -6 -6" transform="rotate(-90,418,178)"/><rect x="412" y="184" width="12" height="12" transform="rotate(0,418,190)"/><path d="M 412 220v 12h 12v -6a 6 6, 0, 0, 0, -6 -6" transform="rotate(-90,418,226)"/><rect x="412" y="232" width="12" height="12" transform="rotate(0,418,238)"/><rect x="412" y="244" width="12" height="12" transform="rotate(0,418,250)"/><path d="M 412 256v 12h 6a 6 6, 0, 0, 0, 0 -12" transform="rotate(90,418,262)"/><path d="M 412 292v 12h 6a 6 6, 0, 0, 0, 0 -12" transform="rotate(-90,418,298)"/><rect x="412" y="304" width="12" height="12" transform="rotate(0,418,310)"/><path d="M 412 340v 12h 6a 6 6, 0, 0, 0, 0 -12" transform="rotate(180,418,346)"/><path d="M 412 364v 12h 12v -6a 6 6, 0, 0, 0, -6 -6" transform="rotate(0,418,370)"/><rect x="412" y="376" width="12" height="12" transform="rotate(0,418,382)"/><rect x="412" y="388" width="12" height="12" transform="rotate(0,418,394)"/><rect x="412" y="400" width="12" height="12" transform="rotate(0,418,406)"/><rect x="412" y="412" width="12" height="12" transform="rotate(0,418,418)"/><rect x="412" y="424" width="12" height="12" transform="rotate(0,418,430)"/><path d="M 424 124v 12h 6a 6 6, 0, 0, 0, 0 -12" transform="rotate(180,430,130)"/><path d="M 424 160v 12h 6a 6 6, 0, 0, 0, 0 -12" transform="rotate(-90,430,166)"/><rect x="424" y="172" width="12" height="12" transform="rotate(0,430,178)"/><rect x="424" y="184" width="12" height="12" transform="rotate(0,430,190)"/><rect x="424" y="196" width="12" height="12" transform="rotate(0,430,202)"/><rect x="424" y="208" width="12" height="12" transform="rotate(0,430,214)"/><rect x="424" y="220" width="12" height="12" transform="rotate(0,430,226)"/><path d="M 424 232v 12h 12v -6a 6 6, 0, 0, 0, -6 -6" transform="rotate(90,430,238)"/><path d="M 424 268v 12h 12v -6a 6 6, 0, 0, 0, -6 -6" transform="rotate(-90,430,274)"/><path d="M 424 280v 12h 6a 6 6, 0, 0, 0, 0 -12" transform="rotate(90,430,286)"/><rect x="424" y="304" width="12" height="12" transform="rotate(0,430,310)"/><rect x="424" y="340" width="12" height="12" transform="rotate(0,430,346)"/><rect x="424" y="388" width="12" height="12" transform="rotate(0,430,394)"/><rect x="424" y="412" width="12" height="12" transform="rotate(0,430,418)"/><rect x="424" y="424" width="12" height="12" transform="rotate(0,430,430)"/><rect x="424" y="436" width="12" height="12" transform="rotate(0,430,442)"/><path d="M 424 448v 12h 12v -6a 6 6, 0, 0, 0, -6 -6" transform="rotate(180,430,454)"/><rect x="436" y="124" width="12" height="12" transform="rotate(0,442,130)"/><rect x="436" y="136" width="12" height="12" transform="rotate(0,442,142)"/><path d="M 436 148v 12h 12v -6a 6 6, 0, 0, 0, -6 -6" transform="rotate(180,442,154)"/><rect x="436" y="172" width="12" height="12" transform="rotate(0,442,178)"/><path d="M 436 184v 12h 12v -6a 6 6, 0, 0, 0, -6 -6" transform="rotate(90,442,190)"/><path d="M 436 220v 12h 6a 6 6, 0, 0, 0, 0 -12" transform="rotate(0,442,226)"/><path d="M 436 256v 12h 6a 6 6, 0, 0, 0, 0 -12" transform="rotate(-90,442,262)"/><rect x="436" y="268" width="12" height="12" transform="rotate(0,442,274)"/><path d="M 436 292v 12h 6a 6 6, 0, 0, 0, 0 -12" transform="rotate(-90,442,298)"/><rect x="436" y="304" width="12" height="12" transform="rotate(0,442,310)"/><rect x="436" y="316" width="12" height="12" transform="rotate(0,442,322)"/><rect x="436" y="328" width="12" height="12" transform="rotate(0,442,334)"/><rect x="436" y="340" width="12" height="12" transform="rotate(0,442,346)"/><rect x="436" y="352" width="12" height="12" transform="rotate(0,442,358)"/><path d="M 436 364v 12h 6a 6 6, 0, 0, 0, 0 -12" transform="rotate(90,442,370)"/><rect x="436" y="388" width="12" height="12" transform="rotate(0,442,394)"/><rect x="436" y="400" width="12" height="12" transform="rotate(0,442,406)"/><rect x="436" y="412" width="12" height="12" transform="rotate(0,442,418)"/><rect x="436" y="424" width="12" height="12" transform="rotate(0,442,430)"/><rect x="436" y="436" width="12" height="12" transform="rotate(0,442,442)"/><path d="M 436 448v 12h 12v -6a 6 6, 0, 0, 0, -6 -6" transform="rotate(90,442,454)"/><path d="M 448 124v 12h 12v -6a 6 6, 0, 0, 0, -6 -6" transform="rotate(0,454,130)"/><rect x="448" y="136" width="12" height="12" transform="rotate(0,454,142)"/><rect x="448" y="148" width="12" height="12" transform="rotate(0,454,154)"/><rect x="448" y="160" width="12" height="12" transform="rotate(0,454,166)"/><rect x="448" y="172" width="12" height="12" transform="rotate(0,454,178)"/><path d="M 448 196v 12h 6a 6 6, 0, 0, 0, 0 -12" transform="rotate(-90,454,202)"/><path d="M 448 208v 12h 6a 6 6, 0, 0, 0, 0 -12" transform="rotate(90,454,214)"/><circle cx="454" cy="238" r="6" transform="rotate(0,454,238)"/><rect x="448" y="268" width="12" height="12" transform="rotate(0,454,274)"/><rect x="448" y="316" width="12" height="12" transform="rotate(0,454,322)"/><rect x="448" y="328" width="12" height="12" transform="rotate(0,454,334)"/><path d="M 448 352v 12h 6a 6 6, 0, 0, 0, 0 -12" transform="rotate(0,454,358)"/><path d="M 448 376v 12h 6a 6 6, 0, 0, 0, 0 -12" transform="rotate(-90,454,382)"/><rect x="448" y="388" width="12" height="12" transform="rotate(0,454,394)"/><rect x="448" y="400" width="12" height="12" transform="rotate(0,454,406)"/><path d="M 448 412v 12h 12v -6a 6 6, 0, 0, 0, -6 -6" transform="rotate(90,454,418)"/><rect x="448" y="436" width="12" height="12" transform="rotate(0,454,442)"/><path d="M 460 160v 12h 12v -6a 6 6, 0, 0, 0, -6 -6" transform="rotate(0,466,166)"/><path d="M 460 172v 12h 12v -6a 6 6, 0, 0, 0, -6 -6" transform="rotate(90,466,178)"/><path d="M 460 256v 12h 6a 6 6, 0, 0, 0, 0 -12" transform="rotate(-90,466,262)"/><path d="M 460 268v 12h 12v -6a 6 6, 0, 0, 0, -6 -6" transform="rotate(90,466,274)"/><circle cx="466" cy="298" r="6" transform="rotate(0,466,298)"/><path d="M 460 316v 12h 12v -6a 6 6, 0, 0, 0, -6 -6" transform="rotate(0,466,322)"/><rect x="460" y="328" width="12" height="12" transform="rotate(0,466,334)"/><path d="M 460 340v 12h 6a 6 6, 0, 0, 0, 0 -12" transform="rotate(90,466,346)"/><path d="M 460 388v 12h 6a 6 6, 0, 0, 0, 0 -12" transform="rotate(0,466,394)"/><path d="M 460 424v 12h 6a 6 6, 0, 0, 0, 0 -12" transform="rotate(-90,466,430)"/><rect x="460" y="436" width="12" height="12" transform="rotate(0,466,442)"/><rect x="460" y="448" width="12" height="12" transform="rotate(0,466,454)"/><path d="M 460 460v 12h 6a 6 6, 0, 0, 0, 0 -12" transform="rotate(90,466,466)"/><path clip-rule="evenodd" d="M 28 58v 24a 30 30, 0, 0, 0, 30 30h 24a 30 30, 0, 0, 0, 30 -30v -24a 30 30, 0, 0, 0, -30 -30h -24a 30 30, 0, 0, 0, -30 30M 58 40h 24a 18 18, 0, 0, 1, 18 18v 24a 18 18, 0, 0, 1, -18 18h -24a 18 18, 0, 0, 1, -18 -18v -24a 18 18, 0, 0, 1, 18 -18" transform="rotate(0,70,70)"/><circle cx="70" cy="70" r="18" transform="rotate(0,70,70)"/><path clip-rule="evenodd" d="M 388 58v 24a 30 30, 0, 0, 0, 30 30h 24a 30 30, 0, 0, 0, 30 -30v -24a 30 30, 0, 0, 0, -30 -30h -24a 30 30, 0, 0, 0, -30 30M 418 40h 24a 18 18, 0, 0, 1, 18 18v 24a 18 18, 0, 0, 1, -18 18h -24a 18 18, 0, 0, 1, -18 -18v -24a 18 18, 0, 0, 1, 18 -18" transform="rotate(90,430,70)"/><circle cx="430" cy="70" r="18" transform="rotate(90,430,70)"/><path clip-rule="evenodd" d="M 28 418v 24a 30 30, 0, 0, 0, 30 30h 24a 30 30, 0, 0, 0, 30 -30v -24a 30 30, 0, 0, 0, -30 -30h -24a 30 30, 0, 0, 0, -30 30M 58 400h 24a 18 18, 0, 0, 1, 18 18v 24a 18 18, 0, 0, 1, -18 18h -24a 18 18, 0, 0, 1, -18 -18v -24a 18 18, 0, 0, 1, 18 -18" transform="rotate(-90,70,430)"/><circle cx="70" cy="430" r="18" transform="rotate(-90,70,430)"/></clipPath></defs><rect x="0" y="0" height="500" width="500" clip-path="url('#clip-path-background-color')" fill="#fff"/><rect x="0" y="0" height="500" width="500" clip-path="url('#clip-path-dot-color')" fill="#000000"/></svg>