<?xml version="1.0" standalone="no"?>
<svg xmlns="http://www.w3.org/2000/svg" width="500" height="500"><defs><clipPath id="clip-path-dot-color"><path d="M 28 124v 12h 12v -6a 6 6, 0, 0, 0, -6 -6" transform="rotate(-90,34,130)"/><rect x="28" y="136" width="12" height="12" transform="rotate(0,34,142)"/><rect x="28" y="148" width="12" height="12" transform="rotate(0,34,154)"/><rect x="28" y="160" width="12" height="12" transform="rotate(0,34,166)"/><rect x="28" y="172" width="12" height="12" transform="rotate(0,34,178)"/><rect x="28" y="184" width="12" height="12" transform="rotate(0,34,190)"/><path d="M 28 196v 12h 6a 6 6, 0, 0, 0, 0 -12" transform="rotate(90,34,202)"/><path d="M 28 220v 12h 6a 6 6, 0, 0, 0, 0 -12" transform="rotate(-90,34,226)"/><path d="M 28 232v 12h 6a 6 6, 0, 0, 0, 0 -12" transform="rotate(90,34,238)"/><path d="M 28 256v 12h 6a 6 6, 0, 0, 0, 0 -12" transform="rotate(180,34,262)"/><path d="M 28 292v 12h 6a 6 6, 0, 0, 0, 0 -12" transform="rotate(-90,34,298)"/><rect x="28" y="304" width="12" height="12" transform="rotate(0,34,310)"/><path d="M 28 316v 12h 12v -6a 6 6, 0, 0, 0, -6 -6" transform="rotate(180,34,322)"/><path d="M 28 340v 12h 6a 6 6, 0, 0, 0, 0 -12" transform="rotate(180,34,346)"/><circle cx="34" cy="370" r="6" transform="rotate(0,34,370)"/><path d="M 40 124v 12h 6a 6 6, 0, 0, 0, 0 -12" transform="rotate(0,46,130)"/><rect x="40" y="148" width="12" height="12" transform="rotate(0,46,154)"/><rect x="40" y="160" width="12" height="12" transform="rotate(0,46,166)"/><rect x="40" y="172" width="12" height="12" transform="rotate(0,46,178)"/><path d="M 40 184v 12h 12v -6a 6 6, 0, 0, 0, -6 -6" transform="rotate(90,46,190)"/><path d="M 40 244v 12h 6a 6 6, 0, 0, 0, 0 -12" transform="rotate(-90,46,250)"/><rect x="40" y="256" width="12" height="12" transform="rotate(0,46,262)"/><path d="M 40 268v 12h 12v -6a 6 6, 0, 0, 0, -6 -6" transform="rotate(180,46,274)"/><rect x="40" y="316" width="12" height="12" transform="rotate(0,46,322)"/><rect x="40" y="328" width="12" height="12" transform="rotate(0,46,334)"/><rect x="40" y="340" width="12" height="12" transform="rotate(0,46,346)"/><rect x="52" y="148" width="12" height="12" transform="rotate(0,58,154)"/><path d="M 52 160v 12h 12v -6a 6 6, 0, 0, 0, -6 -6" transform="rotate(90,58,166)"/><path d="M 52 208v 12h 6a 6 6, 0, 0, 0, 0 -12" transform="rotate(180,58,214)"/><rect x="52" y="256" width="12" height="12" transform="rotate(0,58,262)"/><rect x="52" y="268" width="12" height="12" transform="rotate(0,58,274)"/><rect x="52" y="280" width="12" height="12" transform="rotate(0,58,286)"/><rect x="52" y="292" width="12" height="12" transform="rotate(0,58,298)"/><rect x="52" y="304" width="12" height="12" transform="rotate(0,58,310)"/><path d="M 52 316v 12h 12v -6a 6 6, 0, 0, 0, -6 -6" transform="rotate(90,58,322)"/><path d="M 52 340v 12h 6a 6 6, 0, 0, 0, 0 -12" transform="rotate(0,58,346)"/><path d="M 64 136v 12h 6a 6 6, 0, 0, 0, 0 -12" transform="rotate(-90,70,142)"/><path d="M 64 148v 12h 12v -6a 6 6, 0, 0, 0, -6 -6" transform="rotate(90,70,154)"/><path d="M 64 184v 12h 6a 6 6, 0, 0, 0, 0 -12" transform="rotate(180,70,190)"/><rect x="64" y="208" width="12" height="12" transform="rotate(0,70,214)"/><path d="M 64 232v 12h 6a 6 6, 0, 0, 0, 0 -12" transform="rotate(-90,70,238)"/><rect x="64" y="244" width="12" height="12" transform="rotate(0,70,250)"/><rect x="64" y="256" width="12" height="12" transform="rotate(0,70,262)"/><path d="M 64 280v 12h 12v -6a 6 6, 0, 0, 0, -6 -6" transform="rotate(0,70,286)"/><path d="M 64 292v 12h 12v -6a 6 6, 0, 0, 0, -6 -6" transform="rotate(90,70,298)"/><circle cx="70" cy="334" r="6" transform="rotate(0,70,334)"/><circle cx="70" cy="370" r="6" transform="rotate(0,70,370)"/><circle cx="82" cy="166" r="6" transform="rotate(0,82,166)"/><rect x="76" y="184" width="12" height="12" transform="rotate(0,82,190)"/><path d="M 76 208v 12h 12v -6a 6 6, 0, 0, 0, -6 -6" transform="rotate(0,82,214)"/><path d="M 76 220v 12h 12v -6a 6 6, 0, 0, 0, -6 -6" transform="rotate(180,82,226)"/><rect x="76" y="244" width="12" height="12" transform="rotate(0,82,250)"/><rect x="76" y="256" width="12" height="12" transform="rotate(0,82,262)"/><path d="M 76 268v 12h 12v -6a 6 6, 0, 0, 0, -6 -6" transform="rotate(180,82,274)"/><circle cx="82" cy="310" r="6" transform="rotate(0,82,310)"/><path d="M 76 340v 12h 6a 6 6, 0, 0, 0, 0 -12" transform="rotate(180,82,346)"/><path d="M 88 148v 12h 6a 6 6, 0, 0, 0, 0 -12" transform="rotate(180,94,154)"/><path d="M 88 172v 12h 12v -6a 6 6, 0, 0, 0, -6 -6" transform="rotate(-90,94,178)"/><path d="M 88 184v 12h 12v -6a 6 6, 0, 0, 0, -6 -6" transform="rotate(90,94,190)"/><rect x="88" y="220" width="12" height="12" transform="rotate(0,94,226)"/><rect x="88" y="232" width="12" height="12" transform="rotate(0,94,238)"/><rect x="88" y="244" width="12" height="12" transform="rotate(0,94,250)"/><rect x="88" y="256" width="12" height="12" transform="rotate(0,94,262)"/><rect x="88" y="268" width="12" height="12" transform="rotate(0,94,274)"/><path d="M 88 292v 12h 6a 6 6, 0, 0, 0, 0 -12" transform="rotate(180,94,298)"/><rect x="88" y="340" width="12" height="12" transform="rotate(0,94,346)"/><path d="M 88 364v 12h 6a 6 6, 0, 0, 0, 0 -12" transform="rotate(180,94,370)"/><circle cx="106" cy="130" r="6" transform="rotate(0,106,130)"/><rect x="100" y="148" width="12" height="12" transform="rotate(0,106,154)"/><path d="M 100 172v 12h 6a 6 6, 0, 0, 0, 0 -12" transform="rotate(0,106,178)"/><circle cx="106" cy="202" r="6" transform="rotate(0,106,202)"/><path d="M 100 220v 12h 6a 6 6, 0, 0, 0, 0 -12" transform="rotate(0,106,226)"/><path d="M 100 244v 12h 6a 6 6, 0, 0, 0, 0 -12" transform="rotate(0,106,250)"/><rect x="100" y="268" width="12" height="12" transform="rotate(0,106,274)"/><rect x="100" y="292" width="12" height="12" transform="rotate(0,106,298)"/><path d="M 100 316v 12h 6a 6 6, 0, 0, 0, 0 -12" transform="rotate(180,106,322)"/><rect x="100" y="340" width="12" height="12" transform="rotate(0,106,346)"/><rect x="100" y="364" width="12" height="12" transform="rotate(0,106,370)"/><rect x="112" y="148" width="12" height="12" transform="rotate(0,118,154)"/><circle cx="118" cy="238" r="6" transform="rotate(0,118,238)"/><path d="M 112 268v 12h 6a 6 6, 0, 0, 0, 0 -12" transform="rotate(0,118,274)"/><rect x="112" y="292" width="12" height="12" transform="rotate(0,118,298)"/><rect x="112" y="316" width="12" height="12" transform="rotate(0,118,322)"/><rect x="112" y="340" width="12" height="12" transform="rotate(0,118,346)"/><rect x="112" y="352" width="12" height="12" transform="rotate(0,118,358)"/><rect x="112" y="364" width="12" height="12" transform="rotate(0,118,370)"/><path d="M 124 40v 12h 6a 6 6, 0, 0, 0, 0 -12" transform="rotate(180,130,46)"/><path d="M 124 100v 12h 6a 6 6, 0, 0, 0, 0 -12" transform="rotate(-90,130,106)"/><rect x="124" y="112" width="12" height="12" transform="rotate(0,130,118)"/><path d="M 124 124v 12h 6a 6 6, 0, 0, 0, 0 -12" transform="rotate(90,130,130)"/><rect x="124" y="148" width="12" height="12" transform="rotate(0,130,154)"/><path d="M 124 172v 12h 6a 6 6, 0, 0, 0, 0 -12" transform="rotate(-90,130,178)"/><rect x="124" y="184" width="12" height="12" transform="rotate(0,130,190)"/><path d="M 124 196v 12h 12v -6a 6 6, 0, 0, 0, -6 -6" transform="rotate(180,130,202)"/><path d="M 124 220v 12h 6a 6 6, 0, 0, 0, 0 -12" transform="rotate(180,130,226)"/><circle cx="130" cy="250" r="6" transform="rotate(0,130,250)"/><path d="M 124 280v 12h 6a 6 6, 0, 0, 0, 0 -12" transform="rotate(-90,130,286)"/><path d="M 124 292v 12h 12v -6a 6 6, 0, 0, 0, -6 -6" transform="rotate(90,130,298)"/><path d="M 124 316v 12h 12v -6a 6 6, 0, 0, 0, -6 -6" transform="rotate(0,130,322)"/><rect x="124" y="328" width="12" height="12" transform="rotate(0,130,334)"/><rect x="124" y="340" width="12" height="12" transform="rotate(0,130,346)"/><path d="M 124 364v 12h 12v -6a 6 6, 0, 0, 0, -6 -6" transform="rotate(0,130,370)"/><path d="M 124 376v 12h 6a 6 6, 0, 0, 0, 0 -12" transform="rotate(90,130,382)"/><path d="M 124 448v 12h 12v -6a 6 6, 0, 0, 0, -6 -6" transform="rotate(-90,130,454)"/><path d="M 124 460v 12h 6a 6 6, 0, 0, 0, 0 -12" transform="rotate(90,130,466)"/><path d="M 136 28v 12h 6a 6 6, 0, 0, 0, 0 -12" transform="rotate(-90,142,34)"/><rect x="136" y="40" width="12" height="12" transform="rotate(0,142,46)"/><path d="M 136 52v 12h 6a 6 6, 0, 0, 0, 0 -12" transform="rotate(90,142,58)"/><path d="M 136 76v 12h 6a 6 6, 0, 0, 0, 0 -12" transform="rotate(180,142,82)"/><path d="M 136 112v 12h 6a 6 6, 0, 0, 0, 0 -12" transform="rotate(0,142,118)"/><path d="M 136 136v 12h 12v -6a 6 6, 0, 0, 0, -6 -6" transform="rotate(-90,142,142)"/><path d="M 136 148v 12h 12v -6a 6 6, 0, 0, 0, -6 -6" transform="rotate(90,142,154)"/><path d="M 136 184v 12h 12v -6a 6 6, 0, 0, 0, -6 -6" transform="rotate(0,142,190)"/><rect x="136" y="196" width="12" height="12" transform="rotate(0,142,202)"/><rect x="136" y="208" width="12" height="12" transform="rotate(0,142,214)"/><rect x="136" y="220" width="12" height="12" transform="rotate(0,142,226)"/><path d="M 136 256v 12h 6a 6 6, 0, 0, 0, 0 -12" transform="rotate(-90,142,262)"/><path d="M 136 268v 12h 6a 6 6, 0, 0, 0, 0 -12" transform="rotate(90,142,274)"/><circle cx="142" cy="310" r="6" transform="rotate(0,142,310)"/><rect x="136" y="328" width="12" height="12" transform="rotate(0,142,334)"/><rect x="136" y="340" width="12" height="12" transform="rotate(0,142,346)"/><path d="M 136 352v 12h 12v -6a 6 6, 0, 0, 0, -6 -6" transform="rotate(180,142,358)"/><path d="M 136 400v 12h 12v -6a 6 6, 0, 0, 0, -6 -6" transform="rotate(-90,142,406)"/><rect x="136" y="412" width="12" height="12" transform="rotate(0,142,418)"/><rect x="136" y="424" width="12" height="12" transform="rotate(0,142,430)"/><rect x="136" y="436" width="12" height="12" transform="rotate(0,142,442)"/><rect x="136" y="448" width="12" height="12" transform="rotate(0,142,454)"/><path d="M 148 40v 12h 6a 6 6, 0, 0, 0, 0 -12" transform="rotate(0,154,46)"/><rect x="148" y="76" width="12" height="12" transform="rotate(0,154,82)"/><circle cx="154" cy="106" r="6" transform="rotate(0,154,106)"/><path d="M 148 124v 12h 6a 6 6, 0, 0, 0, 0 -12" transform="rotate(-90,154,130)"/><path d="M 148 136v 12h 12v -6a 6 6, 0, 0, 0, -6 -6" transform="rotate(90,154,142)"/><circle cx="154" cy="166" r="6" transform="rotate(0,154,166)"/><rect x="148" y="220" width="12" height="12" transform="rotate(0,154,226)"/><path d="M 148 244v 12h 6a 6 6, 0, 0, 0, 0 -12" transform="rotate(180,154,250)"/><path d="M 148 316v 12h 6a 6 6, 0, 0, 0, 0 -12" transform="rotate(-90,154,322)"/><rect x="148" y="328" width="12" height="12" transform="rotate(0,154,334)"/><rect x="148" y="340" width="12" height="12" transform="rotate(0,154,346)"/><rect x="148" y="352" width="12" height="12" transform="rotate(0,154,358)"/><path d="M 148 364v 12h 6a 6 6, 0, 0, 0, 0 -12" transform="rotate(90,154,370)"/><path d="M 148 388v 12h 12v -6a 6 6, 0, 0, 0, -6 -6" transform="rotate(-90,154,394)"/><rect x="148" y="400" width="12" height="12" transform="rotate(0,154,406)"/><rect x="148" y="424" width="12" height="12" transform="rotate(0,154,430)"/><rect x="148" y="448" width="12" height="12" transform="rotate(0,154,454)"/><path d="M 148 460v 12h 6a 6 6, 0, 0, 0, 0 -12" transform="rotate(90,154,466)"/><circle cx="166" cy="58" r="6" transform="rotate(0,166,58)"/><rect x="160" y="76" width="12" height="12" transform="rotate(0,166,82)"/><path d="M 160 88v 12h 6a 6 6, 0, 0, 0, 0 -12" transform="rotate(90,166,94)"/><path d="M 160 172v 12h 6a 6 6, 0, 0, 0, 0 -12" transform="rotate(-90,166,178)"/><path d="M 160 184v 12h 12v -6a 6 6, 0, 0, 0, -6 -6" transform="rotate(180,166,190)"/><path d="M 160 208v 12h 12v -6a 6 6, 0, 0, 0, -6 -6" transform="rotate(-90,166,214)"/><rect x="160" y="220" width="12" height="12" transform="rotate(0,166,226)"/><rect x="160" y="244" width="12" height="12" transform="rotate(0,166,250)"/><path d="M 160 256v 12h 6a 6 6, 0, 0, 0, 0 -12" transform="rotate(90,166,262)"/><path d="M 160 340v 12h 6a 6 6, 0, 0, 0, 0 -12" transform="rotate(0,166,346)"/><rect x="160" y="388" width="12" height="12" transform="rotate(0,166,394)"/><rect x="160" y="400" width="12" height="12" transform="rotate(0,166,406)"/><rect x="160" y="412" width="12" height="12" transform="rotate(0,166,418)"/><rect x="160" y="424" width="12" height="12" transform="rotate(0,166,430)"/><path d="M 160 448v 12h 6a 6 6, 0, 0, 0, 0 -12" transform="rotate(0,166,454)"/><path d="M 172 76v 12h 6a 6 6, 0, 0, 0, 0 -12" transform="rotate(0,178,82)"/><path d="M 172 100v 12h 6a 6 6, 0, 0, 0, 0 -12" transform="rotate(-90,178,106)"/><path d="M 172 112v 12h 12v -6a 6 6, 0, 0, 0, -6 -6" transform="rotate(180,178,118)"/><circle cx="178" cy="154" r="6" transform="rotate(0,178,154)"/><rect x="172" y="184" width="12" height="12" transform="rotate(0,178,190)"/><path d="M 172 208v 12h 12v -6a 6 6, 0, 0, 0, -6 -6" transform="rotate(0,178,214)"/><path d="M 172 220v 12h 12v -6a 6 6, 0, 0, 0, -6 -6" transform="rotate(90,178,226)"/><rect x="172" y="244" width="12" height="12" transform="rotate(0,178,250)"/><path d="M 172 268v 12h 6a 6 6, 0, 0, 0, 0 -12" transform="rotate(180,178,274)"/><path d="M 172 304v 12h 6a 6 6, 0, 0, 0, 0 -12" transform="rotate(180,178,310)"/><path d="M 172 364v 12h 6a 6 6, 0, 0, 0, 0 -12" transform="rotate(180,178,370)"/><path d="M 172 388v 12h 12v -6a 6 6, 0, 0, 0, -6 -6" transform="rotate(0,178,394)"/><rect x="172" y="400" width="12" height="12" transform="rotate(0,178,406)"/><path d="M 172 424v 12h 6a 6 6, 0, 0, 0, 0 -12" transform="rotate(0,178,430)"/><path d="M 184 28v 12h 6a 6 6, 0, 0, 0, 0 -12" transform="rotate(-90,190,34)"/><rect x="184" y="40" width="12" height="12" transform="rotate(0,190,46)"/><path d="M 184 52v 12h 6a 6 6, 0, 0, 0, 0 -12" transform="rotate(90,190,58)"/><rect x="184" y="112" width="12" height="12" transform="rotate(0,190,118)"/><circle cx="190" cy="142" r="6" transform="rotate(0,190,142)"/><circle cx="190" cy="166" r="6" transform="rotate(0,190,166)"/><rect x="184" y="184" width="12" height="12" transform="rotate(0,190,190)"/><path d="M 184 196v 12h 12v -6a 6 6, 0, 0, 0, -6 -6" transform="rotate(180,190,202)"/><path d="M 184 244v 12h 12v -6a 6 6, 0, 0, 0, -6 -6" transform="rotate(0,190,250)"/><rect x="184" y="256" width="12" height="12" transform="rotate(0,190,262)"/><rect x="184" y="268" width="12" height="12" transform="rotate(0,190,274)"/><path d="M 184 280v 12h 6a 6 6, 0, 0, 0, 0 -12" transform="rotate(90,190,286)"/><path d="M 184 304v 12h 6a 6 6, 0, 0, 0, 0 -12" transform="rotate(0,190,310)"/><path d="M 184 328v 12h 12v -6a 6 6, 0, 0, 0, -6 -6" transform="rotate(-90,190,334)"/><rect x="184" y="340" width="12" height="12" transform="rotate(0,190,346)"/><rect x="184" y="352" width="12" height="12" transform="rotate(0,190,358)"/><rect x="184" y="364" width="12" height="12" transform="rotate(0,190,370)"/><path d="M 184 376v 12h 6a 6 6, 0, 0, 0, 0 -12" transform="rotate(90,190,382)"/><rect x="184" y="400" width="12" height="12" transform="rotate(0,190,406)"/><circle cx="190" cy="442" r="6" transform="rotate(0,190,442)"/><rect x="196" y="40" width="12" height="12" transform="rotate(0,202,46)"/><path d="M 196 64v 12h 12v -6a 6 6, 0, 0, 0, -6 -6" transform="rotate(-90,202,70)"/><path d="M 196 76v 12h 6a 6 6, 0, 0, 0, 0 -12" transform="rotate(90,202,82)"/><path d="M 196 100v 12h 6a 6 6, 0, 0, 0, 0 -12" transform="rotate(-90,202,106)"/><rect x="196" y="112" width="12" height="12" transform="rotate(0,202,118)"/><rect x="196" y="184" width="12" height="12" transform="rotate(0,202,190)"/><rect x="196" y="196" width="12" height="12" transform="rotate(0,202,202)"/><path d="M 196 268v 12h 6a 6 6, 0, 0, 0, 0 -12" transform="rotate(0,202,274)"/><path d="M 196 292v 12h 6a 6 6, 0, 0, 0, 0 -12" transform="rotate(180,202,298)"/><path d="M 196 328v 12h 12v -6a 6 6, 0, 0, 0, -6 -6" transform="rotate(0,202,334)"/><rect x="196" y="340" width="12" height="12" transform="rotate(0,202,346)"/><path d="M 196 352v 12h 12v -6a 6 6, 0, 0, 0, -6 -6" transform="rotate(90,202,358)"/><path d="M 196 388v 12h 6a 6 6, 0, 0, 0, 0 -12" transform="rotate(-90,202,394)"/><rect x="196" y="400" width="12" height="12" transform="rotate(0,202,406)"/><rect x="196" y="412" width="12" height="12" transform="rotate(0,202,418)"/><path d="M 196 424v 12h 12v -6a 6 6, 0, 0, 0, -6 -6" transform="rotate(180,202,430)"/><path d="M 196 448v 12h 6a 6 6, 0, 0, 0, 0 -12" transform="rotate(-90,202,454)"/><path d="M 196 460v 12h 6a 6 6, 0, 0, 0, 0 -12" transform="rotate(90,202,466)"/><path d="M 208 40v 12h 6a 6 6, 0, 0, 0, 0 -12" transform="rotate(0,214,46)"/><path d="M 208 64v 12h 6a 6 6, 0, 0, 0, 0 -12" transform="rotate(0,214,70)"/><rect x="208" y="112" width="12" height="12" transform="rotate(0,214,118)"/><rect x="208" y="124" width="12" height="12" transform="rotate(0,214,130)"/><rect x="208" y="136" width="12" height="12" transform="rotate(0,214,142)"/><path d="M 208 148v 12h 6a 6 6, 0, 0, 0, 0 -12" transform="rotate(90,214,154)"/><path d="M 208 184v 12h 12v -6a 6 6, 0, 0, 0, -6 -6" transform="rotate(0,214,190)"/><rect x="208" y="196" width="12" height="12" transform="rotate(0,214,202)"/><rect x="208" y="208" width="12" height="12" transform="rotate(0,214,214)"/><rect x="208" y="220" width="12" height="12" transform="rotate(0,214,226)"/><path d="M 208 232v 12h 12v -6a 6 6, 0, 0, 0, -6 -6" transform="rotate(180,214,238)"/><path d="M 208 280v 12h 12v -6a 6 6, 0, 0, 0, -6 -6" transform="rotate(-90,214,286)"/><rect x="208" y="292" width="12" height="12" transform="rotate(0,214,298)"/><circle cx="214" cy="322" r="6" transform="rotate(0,214,322)"/><path d="M 208 364v 12h 6a 6 6, 0, 0, 0, 0 -12" transform="rotate(-90,214,370)"/><path d="M 208 376v 12h 12v -6a 6 6, 0, 0, 0, -6 -6" transform="rotate(180,214,382)"/><rect x="208" y="412" width="12" height="12" transform="rotate(0,214,418)"/><rect x="208" y="424" width="12" height="12" transform="rotate(0,214,430)"/><path d="M 208 436v 12h 12v -6a 6 6, 0, 0, 0, -6 -6" transform="rotate(180,214,442)"/><path d="M 220 28v 12h 6a 6 6, 0, 0, 0, 0 -12" transform="rotate(180,226,34)"/><circle cx="226" cy="82" r="6" transform="rotate(0,226,82)"/><path d="M 220 100v 12h 6a 6 6, 0, 0, 0, 0 -12" transform="rotate(-90,226,106)"/><path d="M 220 112v 12h 12v -6a 6 6, 0, 0, 0, -6 -6" transform="rotate(90,226,118)"/><path d="M 220 136v 12h 6a 6 6, 0, 0, 0, 0 -12" transform="rotate(0,226,142)"/><circle cx="226" cy="178" r="6" transform="rotate(0,226,178)"/><rect x="220" y="220" width="12" height="12" transform="rotate(0,226,226)"/><rect x="220" y="232" width="12" height="12" transform="rotate(0,226,238)"/><rect x="220" y="244" width="12" height="12" transform="rotate(0,226,250)"/><rect x="220" y="256" width="12" height="12" transform="rotate(0,226,262)"/><rect x="220" y="268" width="12" height="12" transform="rotate(0,226,274)"/><rect x="220" y="280" width="12" height="12" transform="rotate(0,226,286)"/><path d="M 220 292v 12h 12v -6a 6 6, 0, 0, 0, -6 -6" transform="rotate(90,226,298)"/><circle cx="226" cy="334" r="6" transform="rotate(0,226,334)"/><path d="M 220 352v 12h 6a 6 6, 0, 0, 0, 0 -12" transform="rotate(180,226,358)"/><path d="M 220 376v 12h 12v -6a 6 6, 0, 0, 0, -6 -6" transform="rotate(0,226,382)"/><path d="M 220 388v 12h 6a 6 6, 0, 0, 0, 0 -12" transform="rotate(90,226,394)"/><path d="M 220 412v 12h 6a 6 6, 0, 0, 0, 0 -12" transform="rotate(0,226,418)"/><path d="M 220 436v 12h 6a 6 6, 0, 0, 0, 0 -12" transform="rotate(0,226,442)"/><circle cx="226" cy="466" r="6" transform="rotate(0,226,466)"/><path d="M 232 28v 12h 12v -6a 6 6, 0, 0, 0, -6 -6" transform="rotate(0,238,34)"/><path d="M 232 40v 12h 6a 6 6, 0, 0, 0, 0 -12" transform="rotate(90,238,46)"/><path d="M 232 64v 12h 6a 6 6, 0, 0, 0, 0 -12" transform="rotate(180,238,70)"/><path d="M 232 196v 12h 6a 6 6, 0, 0, 0, 0 -12" transform="rotate(-90,238,202)"/><rect x="232" y="208" width="12" height="12" transform="rotate(0,238,214)"/><rect x="232" y="220" width="12" height="12" transform="rotate(0,238,226)"/><rect x="232" y="232" width="12" height="12" transform="rotate(0,238,238)"/><path d="M 232 268v 12h 12v -6a 6 6, 0, 0, 0, -6 -6" transform="rotate(0,238,274)"/><path d="M 232 280v 12h 12v -6a 6 6, 0, 0, 0, -6 -6" transform="rotate(90,238,286)"/><path d="M 232 304v 12h 6a 6 6, 0, 0, 0, 0 -12" transform="rotate(180,238,310)"/><path d="M 232 340v 12h 12v -6a 6 6, 0, 0, 0, -6 -6" transform="rotate(-90,238,346)"/><rect x="232" y="352" width="12" height="12" transform="rotate(0,238,358)"/><path d="M 232 364v 12h 6a 6 6, 0, 0, 0, 0 -12" transform="rotate(90,238,370)"/><path d="M 232 400v 12h 6a 6 6, 0, 0, 0, 0 -12" transform="rotate(180,238,406)"/><circle cx="238" cy="430" r="6" transform="rotate(0,238,430)"/><path d="M 244 52v 12h 6a 6 6, 0, 0, 0, 0 -12" transform="rotate(-90,250,58)"/><rect x="244" y="64" width="12" height="12" transform="rotate(0,250,70)"/><path d="M 244 100v 12h 6a 6 6, 0, 0, 0, 0 -12" transform="rotate(-90,250,106)"/><rect x="244" y="112" width="12" height="12" transform="rotate(0,250,118)"/><path d="M 244 124v 12h 6a 6 6, 0, 0, 0, 0 -12" transform="rotate(90,250,130)"/><circle cx="250" cy="154" r="6" transform="rotate(0,250,154)"/><circle cx="250" cy="178" r="6" transform="rotate(0,250,178)"/><rect x="244" y="220" width="12" height="12" transform="rotate(0,250,226)"/><path d="M 244 232v 12h 12v -6a 6 6, 0, 0, 0, -6 -6" transform="rotate(90,250,238)"/><path d="M 244 304v 12h 6a 6 6, 0, 0, 0, 0 -12" transform="rotate(0,250,310)"/><rect x="244" y="340" width="12" height="12" transform="rotate(0,250,346)"/><path d="M 244 352v 12h 12v -6a 6 6, 0, 0, 0, -6 -6" transform="rotate(90,250,358)"/><path d="M 244 388v 12h 12v -6a 6 6, 0, 0, 0, -6 -6" transform="rotate(-90,250,394)"/><rect x="244" y="400" width="12" height="12" transform="rotate(0,250,406)"/><circle cx="250" cy="442" r="6" transform="rotate(0,250,442)"/><path d="M 244 460v 12h 6a 6 6, 0, 0, 0, 0 -12" transform="rotate(180,250,466)"/><path d="M 256 40v 12h 6a 6 6, 0, 0, 0, 0 -12" transform="rotate(180,262,46)"/><rect x="256" y="64" width="12" height="12" transform="rotate(0,262,70)"/><path d="M 256 76v 12h 6a 6 6, 0, 0, 0, 0 -12" transform="rotate(90,262,82)"/><path d="M 256 112v 12h 6a 6 6, 0, 0, 0, 0 -12" transform="rotate(0,262,118)"/><circle cx="262" cy="142" r="6" transform="rotate(0,262,142)"/><circle cx="262" cy="190" r="6" transform="rotate(0,262,190)"/><path d="M 256 208v 12h 6a 6 6, 0, 0, 0, 0 -12" transform="rotate(-90,262,214)"/><rect x="256" y="220" width="12" height="12" transform="rotate(0,262,226)"/><path d="M 256 256v 12h 12v -6a 6 6, 0, 0, 0, -6 -6" transform="rotate(-90,262,262)"/><path d="M 256 268v 12h 6a 6 6, 0, 0, 0, 0 -12" transform="rotate(90,262,274)"/><path d="M 256 316v 12h 6a 6 6, 0, 0, 0, 0 -12" transform="rotate(180,262,322)"/><rect x="256" y="340" width="12" height="12" transform="rotate(0,262,346)"/><path d="M 256 364v 12h 6a 6 6, 0, 0, 0, 0 -12" transform="rotate(-90,262,370)"/><rect x="256" y="376" width="12" height="12" transform="rotate(0,262,382)"/><rect x="256" y="388" width="12" height="12" transform="rotate(0,262,394)"/><rect x="256" y="400" width="12" height="12" transform="rotate(0,262,406)"/><rect x="256" y="412" width="12" height="12" transform="rotate(0,262,418)"/><path d="M 256 424v 12h 12v -6a 6 6, 0, 0, 0, -6 -6" transform="rotate(180,262,430)"/><path d="M 256 448v 12h 6a 6 6, 0, 0, 0, 0 -12" transform="rotate(-90,262,454)"/><path d="M 256 460v 12h 12v -6a 6 6, 0, 0, 0, -6 -6" transform="rotate(90,262,466)"/><path d="M 268 40v 12h 12v -6a 6 6, 0, 0, 0, -6 -6" transform="rotate(0,274,46)"/><rect x="268" y="52" width="12" height="12" transform="rotate(0,274,58)"/><path d="M 268 64v 12h 12v -6a 6 6, 0, 0, 0, -6 -6" transform="rotate(90,274,70)"/><path d="M 268 88v 12h 12v -6a 6 6, 0, 0, 0, -6 -6" transform="rotate(-90,274,94)"/><path d="M 268 100v 12h 6a 6 6, 0, 0, 0, 0 -12" transform="rotate(90,274,106)"/><path d="M 268 160v 12h 6a 6 6, 0, 0, 0, 0 -12" transform="rotate(180,274,166)"/><path d="M 268 220v 12h 6a 6 6, 0, 0, 0, 0 -12" transform="rotate(0,274,226)"/><path d="M 268 244v 12h 12v -6a 6 6, 0, 0, 0, -6 -6" transform="rotate(-90,274,250)"/><path d="M 268 256v 12h 12v -6a 6 6, 0, 0, 0, -6 -6" transform="rotate(90,274,262)"/><circle cx="274" cy="298" r="6" transform="rotate(0,274,298)"/><path d="M 268 316v 12h 12v -6a 6 6, 0, 0, 0, -6 -6" transform="rotate(0,274,322)"/><rect x="268" y="328" width="12" height="12" transform="rotate(0,274,334)"/><rect x="268" y="340" width="12" height="12" transform="rotate(0,274,346)"/><path d="M 268 352v 12h 12v -6a 6 6, 0, 0, 0, -6 -6" transform="rotate(180,274,358)"/><path d="M 268 388v 12h 12v -6a 6 6, 0, 0, 0, -6 -6" transform="rotate(0,274,394)"/><rect x="268" y="400" width="12" height="12" transform="rotate(0,274,406)"/><rect x="268" y="412" width="12" height="12" transform="rotate(0,274,418)"/><rect x="268" y="424" width="12" height="12" transform="rotate(0,274,430)"/><path d="M 268 436v 12h 12v -6a 6 6, 0, 0, 0, -6 -6" transform="rotate(180,274,442)"/><circle cx="286" cy="34" r="6" transform="rotate(0,286,34)"/><rect x="280" y="52" width="12" height="12" transform="rotate(0,286,58)"/><path d="M 280 76v 12h 6a 6 6, 0, 0, 0, 0 -12" transform="rotate(-90,286,82)"/><path d="M 280 88v 12h 12v -6a 6 6, 0, 0, 0, -6 -6" transform="rotate(90,286,94)"/><circle cx="286" cy="118" r="6" transform="rotate(0,286,118)"/><path d="M 280 160v 12h 12v -6a 6 6, 0, 0, 0, -6 -6" transform="rotate(0,286,166)"/><path d="M 280 172v 12h 6a 6 6, 0, 0, 0, 0 -12" transform="rotate(90,286,178)"/><path d="M 280 196v 12h 6a 6 6, 0, 0, 0, 0 -12" transform="rotate(-90,286,202)"/><path d="M 280 208v 12h 6a 6 6, 0, 0, 0, 0 -12" transform="rotate(90,286,214)"/><path d="M 280 244v 12h 6a 6 6, 0, 0, 0, 0 -12" transform="rotate(0,286,250)"/><path d="M 280 268v 12h 6a 6 6, 0, 0, 0, 0 -12" transform="rotate(-90,286,274)"/><path d="M 280 280v 12h 6a 6 6, 0, 0, 0, 0 -12" transform="rotate(90,286,286)"/><circle cx="286" cy="310" r="6" transform="rotate(0,286,310)"/><path d="M 280 328v 12h 6a 6 6, 0, 0, 0, 0 -12" transform="rotate(0,286,334)"/><rect x="280" y="352" width="12" height="12" transform="rotate(0,286,358)"/><rect x="280" y="364" width="12" height="12" transform="rotate(0,286,370)"/><path d="M 280 376v 12h 12v -6a 6 6, 0, 0, 0, -6 -6" transform="rotate(180,286,382)"/><path d="M 280 400v 12h 12v -6a 6 6, 0, 0, 0, -6 -6" transform="rotate(0,286,406)"/><rect x="280" y="412" width="12" height="12" transform="rotate(0,286,418)"/><rect x="280" y="424" width="12" height="12" transform="rotate(0,286,430)"/><rect x="280" y="436" width="12" height="12" transform="rotate(0,286,442)"/><path d="M 280 448v 12h 12v -6a 6 6, 0, 0, 0, -6 -6" transform="rotate(180,286,454)"/><path d="M 292 40v 12h 6a 6 6, 0, 0, 0, 0 -12" transform="rotate(-90,298,46)"/><rect x="292" y="52" width="12" height="12" transform="rotate(0,298,58)"/><path d="M 292 64v 12h 12v -6a 6 6, 0, 0, 0, -6 -6" transform="rotate(180,298,70)"/><circle cx="298" cy="106" r="6" transform="rotate(0,298,106)"/><path d="M 292 124v 12h 6a 6 6, 0, 0, 0, 0 -12" transform="rotate(-90,298,130)"/><path d="M 292 136v 12h 6a 6 6, 0, 0, 0, 0 -12" transform="rotate(90,298,142)"/><circle cx="298" cy="190" r="6" transform="rotate(0,298,190)"/><circle cx="298" cy="238" r="6" transform="rotate(0,298,238)"/><path d="M 292 292v 12h 6a 6 6, 0, 0, 0, 0 -12" transform="rotate(180,298,298)"/><path d="M 292 340v 12h 12v -6a 6 6, 0, 0, 0, -6 -6" transform="rotate(-90,298,346)"/><rect x="292" y="352" width="12" height="12" transform="rotate(0,298,358)"/><rect x="292" y="376" width="12" height="12" transform="rotate(0,298,382)"/><path d="M 292 388v 12h 12v -6a 6 6, 0, 0, 0, -6 -6" transform="rotate(180,298,394)"/><rect x="292" y="448" width="12" height="12" transform="rotate(0,298,454)"/><path d="M 292 460v 12h 12v -6a 6 6, 0, 0, 0, -6 -6" transform="rotate(180,298,466)"/><rect x="304" y="64" width="12" height="12" transform="rotate(0,310,70)"/><path d="M 304 76v 12h 12v -6a 6 6, 0, 0, 0, -6 -6" transform="rotate(180,310,82)"/><path d="M 304 148v 12h 6a 6 6, 0, 0, 0, 0 -12" transform="rotate(180,310,154)"/><circle cx="310" cy="178" r="6" transform="rotate(0,310,178)"/><circle cx="310" cy="214" r="6" transform="rotate(0,310,214)"/><circle cx="310" cy="274" r="6" transform="rotate(0,310,274)"/><path d="M 304 292v 12h 12v -6a 6 6, 0, 0, 0, -6 -6" transform="rotate(0,310,298)"/><rect x="304" y="304" width="12" height="12" transform="rotate(0,310,310)"/><path d="M 304 316v 12h 6a 6 6, 0, 0, 0, 0 -12" transform="rotate(90,310,322)"/><rect x="304" y="340" width="12" height="12" transform="rotate(0,310,346)"/><path d="M 304 352v 12h 12v -6a 6 6, 0, 0, 0, -6 -6" transform="rotate(90,310,358)"/><path d="M 304 376v 12h 12v -6a 6 6, 0, 0, 0, -6 -6" transform="rotate(0,310,382)"/><rect x="304" y="388" width="12" height="12" transform="rotate(0,310,394)"/><path d="M 304 400v 12h 12v -6a 6 6, 0, 0, 0, -6 -6" transform="rotate(180,310,406)"/><circle cx="310" cy="430" r="6" transform="rotate(0,310,430)"/><path d="M 304 448v 12h 12v -6a 6 6, 0, 0, 0, -6 -6" transform="rotate(0,310,454)"/><rect x="304" y="460" width="12" height="12" transform="rotate(0,310,466)"/><path d="M 316 40v 12h 6a 6 6, 0, 0, 0, 0 -12" transform="rotate(-90,322,46)"/><rect x="316" y="52" width="12" height="12" transform="rotate(0,322,58)"/><rect x="316" y="64" width="12" height="12" transform="rotate(0,322,70)"/><rect x="316" y="76" width="12" height="12" transform="rotate(0,322,82)"/><path d="M 316 100v 12h 6a 6 6, 0, 0, 0, 0 -12" transform="rotate(-90,322,106)"/><path d="M 316 112v 12h 12v -6a 6 6, 0, 0, 0, -6 -6" transform="rotate(180,322,118)"/><path d="M 316 148v 12h 12v -6a 6 6, 0, 0, 0, -6 -6" transform="rotate(0,322,154)"/><path d="M 316 160v 12h 6a 6 6, 0, 0, 0, 0 -12" transform="rotate(90,322,166)"/><path d="M 316 196v 12h 6a 6 6, 0, 0, 0, 0 -12" transform="rotate(180,322,202)"/><circle cx="322" cy="250" r="6" transform="rotate(0,322,250)"/><rect x="316" y="304" width="12" height="12" transform="rotate(0,322,310)"/><rect x="316" y="340" width="12" height="12" transform="rotate(0,322,346)"/><path d="M 316 364v 12h 6a 6 6, 0, 0, 0, 0 -12" transform="rotate(180,322,370)"/><path d="M 316 388v 12h 12v -6a 6 6, 0, 0, 0, -6 -6" transform="rotate(0,322,394)"/><rect x="316" y="400" width="12" height="12" transform="rotate(0,322,406)"/><path d="M 316 460v 12h 6a 6 6, 0, 0, 0, 0 -12" transform="rotate(0,322,466)"/><path d="M 328 28v 12h 6a 6 6, 0, 0, 0, 0 -12" transform="rotate(180,334,34)"/><path d="M 328 64v 12h 12v -6a 6 6, 0, 0, 0, -6 -6" transform="rotate(0,334,70)"/><rect x="328" y="76" width="12" height="12" transform="rotate(0,334,82)"/><path d="M 328 88v 12h 12v -6a 6 6, 0, 0, 0, -6 -6" transform="rotate(180,334,94)"/><path d="M 328 112v 12h 6a 6 6, 0, 0, 0, 0 -12" transform="rotate(0,334,118)"/><path d="M 328 136v 12h 6a 6 6, 0, 0, 0, 0 -12" transform="rotate(180,334,142)"/><path d="M 328 172v 12h 6a 6 6, 0, 0, 0, 0 -12" transform="rotate(-90,334,178)"/><rect x="328" y="184" width="12" height="12" transform="rotate(0,334,190)"/><rect x="328" y="196" width="12" height="12" transform="rotate(0,334,202)"/><rect x="328" y="208" width="12" height="12" transform="rotate(0,334,214)"/><rect x="328" y="220" width="12" height="12" transform="rotate(0,334,226)"/><path d="M 328 232v 12h 6a 6 6, 0, 0, 0, 0 -12" transform="rotate(90,334,238)"/><circle cx="334" cy="274" r="6" transform="rotate(0,334,274)"/><path d="M 328 292v 12h 12v -6a 6 6, 0, 0, 0, -6 -6" transform="rotate(-90,334,298)"/><path d="M 328 304v 12h 12v -6a 6 6, 0, 0, 0, -6 -6" transform="rotate(90,334,310)"/><path d="M 328 340v 12h 12v -6a 6 6, 0, 0, 0, -6 -6" transform="rotate(0,334,346)"/><rect x="328" y="352" width="12" height="12" transform="rotate(0,334,358)"/><path d="M 328 364v 12h 12v -6a 6 6, 0, 0, 0, -6 -6" transform="rotate(90,334,370)"/><rect x="328" y="400" width="12" height="12" transform="rotate(0,334,406)"/><path d="M 328 424v 12h 6a 6 6, 0, 0, 0, 0 -12" transform="rotate(-90,334,430)"/><path d="M 328 436v 12h 6a 6 6, 0, 0, 0, 0 -12" transform="rotate(90,334,442)"/><rect x="340" y="28" width="12" height="12" transform="rotate(0,346,34)"/><rect x="340" y="88" width="12" height="12" transform="rotate(0,346,94)"/><path d="M 340 100v 12h 6a 6 6, 0, 0, 0, 0 -12" transform="rotate(90,346,106)"/><path d="M 340 124v 12h 6a 6 6, 0, 0, 0, 0 -12" transform="rotate(-90,346,130)"/><rect x="340" y="136" width="12" height="12" transform="rotate(0,346,142)"/><rect x="340" y="148" width="12" height="12" transform="rotate(0,346,154)"/><path d="M 340 160v 12h 12v -6a 6 6, 0, 0, 0, -6 -6" transform="rotate(180,346,166)"/><rect x="340" y="196" width="12" height="12" transform="rotate(0,346,202)"/><path d="M 340 208v 12h 12v -6a 6 6, 0, 0, 0, -6 -6" transform="rotate(90,346,214)"/><circle cx="346" cy="250" r="6" transform="rotate(0,346,250)"/><path d="M 340 280v 12h 6a 6 6, 0, 0, 0, 0 -12" transform="rotate(-90,346,286)"/><rect x="340" y="292" width="12" height="12" transform="rotate(0,346,298)"/><path d="M 340 352v 12h 6a 6 6, 0, 0, 0, 0 -12" transform="rotate(0,346,358)"/><path d="M 340 388v 12h 6a 6 6, 0, 0, 0, 0 -12" transform="rotate(-90,346,394)"/><rect x="340" y="400" width="12" height="12" transform="rotate(0,346,406)"/><path d="M 340 412v 12h 6a 6 6, 0, 0, 0, 0 -12" transform="rotate(90,346,418)"/><path d="M 340 448v 12h 12v -6a 6 6, 0, 0, 0, -6 -6" transform="rotate(-90,346,454)"/><path d="M 340 460v 12h 6a 6 6, 0, 0, 0, 0 -12" transform="rotate(90,346,466)"/><rect x="352" y="28" width="12" height="12" transform="rotate(0,358,34)"/><path d="M 352 64v 12h 6a 6 6, 0, 0, 0, 0 -12" transform="rotate(180,358,70)"/><rect x="352" y="88" width="12" height="12" transform="rotate(0,358,94)"/><circle cx="358" cy="118" r="6" transform="rotate(0,358,118)"/><path d="M 352 160v 12h 6a 6 6, 0, 0, 0, 0 -12" transform="rotate(0,358,166)"/><path d="M 352 184v 12h 12v -6a 6 6, 0, 0, 0, -6 -6" transform="rotate(-90,358,190)"/><path d="M 352 196v 12h 12v -6a 6 6, 0, 0, 0, -6 -6" transform="rotate(90,358,202)"/><path d="M 352 256v 12h 12v -6a 6 6, 0, 0, 0, -6 -6" transform="rotate(-90,358,262)"/><path d="M 352 268v 12h 6a 6 6, 0, 0, 0, 0 -12" transform="rotate(90,358,274)"/><path d="M 352 292v 12h 6a 6 6, 0, 0, 0, 0 -12" transform="rotate(0,358,298)"/><path d="M 352 340v 12h 6a 6 6, 0, 0, 0, 0 -12" transform="rotate(180,358,346)"/><path d="M 352 376v 12h 6a 6 6, 0, 0, 0, 0 -12" transform="rotate(180,358,382)"/><rect x="352" y="400" width="12" height="12" transform="rotate(0,358,406)"/><path d="M 352 424v 12h 6a 6 6, 0, 0, 0, 0 -12" transform="rotate(-90,358,430)"/><rect x="352" y="436" width="12" height="12" transform="rotate(0,358,442)"/><path d="M 352 448v 12h 12v -6a 6 6, 0, 0, 0, -6 -6" transform="rotate(90,358,454)"/><path d="M 364 28v 12h 6a 6 6, 0, 0, 0, 0 -12" transform="rotate(0,370,34)"/><path d="M 364 52v 12h 6a 6 6, 0, 0, 0, 0 -12" transform="rotate(-90,370,58)"/><rect x="364" y="64" width="12" height="12" transform="rotate(0,370,70)"/><rect x="364" y="76" width="12" height="12" transform="rotate(0,370,82)"/><rect x="364" y="88" width="12" height="12" transform="rotate(0,370,94)"/><path d="M 364 100v 12h 6a 6 6, 0, 0, 0, 0 -12" transform="rotate(90,370,106)"/><path d="M 364 124v 12h 12v -6a 6 6, 0, 0, 0, -6 -6" transform="rotate(-90,370,130)"/><rect x="364" y="136" width="12" height="12" transform="rotate(0,370,142)"/><path d="M 364 148v 12h 12v -6a 6 6, 0, 0, 0, -6 -6" transform="rotate(180,370,154)"/><path d="M 364 172v 12h 6a 6 6, 0, 0, 0, 0 -12" transform="rotate(-90,370,178)"/><path d="M 364 184v 12h 12v -6a 6 6, 0, 0, 0, -6 -6" transform="rotate(90,370,190)"/><path d="M 364 220v 12h 12v -6a 6 6, 0, 0, 0, -6 -6" transform="rotate(-90,370,226)"/><path d="M 364 232v 12h 12v -6a 6 6, 0, 0, 0, -6 -6" transform="rotate(180,370,238)"/><rect x="364" y="256" width="12" height="12" transform="rotate(0,370,262)"/><path d="M 364 316v 12h 6a 6 6, 0, 0, 0, 0 -12" transform="rotate(-90,370,322)"/><rect x="364" y="328" width="12" height="12" transform="rotate(0,370,334)"/><rect x="364" y="340" width="12" height="12" transform="rotate(0,370,346)"/><rect x="364" y="352" width="12" height="12" transform="rotate(0,370,358)"/><rect x="364" y="364" width="12" height="12" transform="rotate(0,370,370)"/><rect x="364" y="376" width="12" height="12" transform="rotate(0,370,382)"/><rect x="364" y="388" width="12" height="12" transform="rotate(0,370,394)"/><rect x="364" y="400" width="12" height="12" transform="rotate(0,370,406)"/><path d="M 364 412v 12h 12v -6a 6 6, 0, 0, 0, -6 -6" transform="rotate(180,370,418)"/><circle cx="370" cy="466" r="6" transform="rotate(0,370,466)"/><rect x="376" y="124" width="12" height="12" transform="rotate(0,382,130)"/><path d="M 376 148v 12h 12v -6a 6 6, 0, 0, 0, -6 -6" transform="rotate(0,382,154)"/><path d="M 376 160v 12h 12v -6a 6 6, 0, 0, 0, -6 -6" transform="rotate(180,382,166)"/><path d="M 376 220v 12h 12v -6a 6 6, 0, 0, 0, -6 -6" transform="rotate(0,382,226)"/><path d="M 376 232v 12h 12v -6a 6 6, 0, 0, 0, -6 -6" transform="rotate(90,382,238)"/><rect x="376" y="256" width="12" height="12" transform="rotate(0,382,262)"/><path d="M 376 304v 12h 6a 6 6, 0, 0, 0, 0 -12" transform="rotate(180,382,310)"/><path d="M 376 328v 12h 6a 6 6, 0, 0, 0, 0 -12" transform="rotate(0,382,334)"/><path d="M 376 352v 12h 12v -6a 6 6, 0, 0, 0, -6 -6" transform="rotate(0,382,358)"/><rect x="376" y="364" width="12" height="12" transform="rotate(0,382,370)"/><rect x="376" y="412" width="12" height="12" transform="rotate(0,382,418)"/><path d="M 376 424v 12h 12v -6a 6 6, 0, 0, 0, -6 -6" transform="rotate(180,382,430)"/><circle cx="382" cy="454" r="6" transform="rotate(0,382,454)"/><path d="M 388 124v 12h 12v -6a 6 6, 0, 0, 0, -6 -6" transform="rotate(0,394,130)"/><path d="M 388 136v 12h 6a 6 6, 0, 0, 0, 0 -12" transform="rotate(90,394,142)"/><rect x="388" y="160" width="12" height="12" transform="rotate(0,394,166)"/><path d="M 388 184v 12h 6a 6 6, 0, 0, 0, 0 -12" transform="rotate(180,394,190)"/><path d="M 388 208v 12h 6a 6 6, 0, 0, 0, 0 -12" transform="rotate(180,394,214)"/><rect x="388" y="256" width="12" height="12" transform="rotate(0,394,262)"/><path d="M 388 280v 12h 6a 6 6, 0, 0, 0, 0 -12" transform="rotate(-90,394,286)"/><rect x="388" y="292" width="12" height="12" transform="rotate(0,394,298)"/><rect x="388" y="304" width="12" height="12" transform="rotate(0,394,310)"/><path d="M 388 316v 12h 6a 6 6, 0, 0, 0, 0 -12" transform="rotate(90,394,322)"/><rect x="388" y="364" width="12" height="12" transform="rotate(0,394,370)"/><circle cx="394" cy="394" r="6" transform="rotate(0,394,394)"/><rect x="388" y="412" width="12" height="12" transform="rotate(0,394,418)"/><rect x="388" y="424" width="12" height="12" transform="rotate(0,394,430)"/><path d="M 388 436v 12h 6a 6 6, 0, 0, 0, 0 -12" transform="rotate(90,394,442)"/><path d="M 388 460v 12h 6a 6 6, 0, 0, 0, 0 -12" transform="rotate(180,394,466)"/><path d="M 400 148v 12h 6a 6 6, 0, 0, 0, 0 -12" transform="rotate(-90,406,154)"/><rect x="400" y="160" width="12" height="12" transform="rotate(0,406,166)"/><rect x="400" y="172" width="12" height="12" transform="rotate(0,406,178)"/><rect x="400" y="184" width="12" height="12" transform="rotate(0,406,190)"/><rect x="400" y="196" width="12" height="12" transform="rotate(0,406,202)"/><rect x="400" y="208" width="12" height="12" transform="rotate(0,406,214)"/><path d="M 400 232v 12h 12v -6a 6 6, 0, 0, 0, -6 -6" transform="rotate(-90,406,238)"/><rect x="400" y="244" width="12" height="12" transform="rotate(0,406,250)"/><rect x="400" y="256" width="12" height="12" transform="rotate(0,406,262)"/><path d="M 400 292v 12h 6a 6 6, 0, 0, 0, 0 -12" transform="rotate(0,406,298)"/><path d="M 400 340v 12h 12v -6a 6 6, 0, 0, 0, -6 -6" transform="rotate(-90,406,346)"/><rect x="400" y="352" width="12" height="12" transform="rotate(0,406,358)"/><rect x="400" y="364" width="12" height="12" transform="rotate(0,406,370)"/><rect x="400" y="412" width="12" height="12" transform="rotate(0,406,418)"/><path d="M 400 424v 12h 12v -6a 6 6, 0, 0, 0, -6 -6" transform="rotate(90,406,430)"/><rect x="400" y="460" width="12" height="12" transform="rotate(0,406,466)"/><rect x="412" y="172" width="12" height="12" transform="rotate(0,418,178)"/><path d="M 412 208v 12h 6a 6 6, 0, 0, 0, 0 -12" transform="rotate(0,418,214)"/><rect x="412" y="232" width="12" height="12" transform="rotate(0,418,238)"/><path d="M 412 256v 12h 6a 6 6, 0, 0, 0, 0 -12" transform="rotate(0,418,262)"/><circle cx="418" cy="286" r="6" transform="rotate(0,418,286)"/><path d="M 412 304v 12h 6a 6 6, 0, 0, 0, 0 -12" transform="rotate(180,418,310)"/><path d="M 412 328v 12h 6a 6 6, 0, 0, 0, 0 -12" transform="rotate(-90,418,334)"/><rect x="412" y="340" width="12" height="12" transform="rotate(0,418,346)"/><rect x="412" y="352" width="12" height="12" transform="rotate(0,418,358)"/><rect x="412" y="364" width="12" height="12" transform="rotate(0,418,370)"/><rect x="412" y="376" width="12" height="12" transform="rotate(0,418,382)"/><rect x="412" y="388" width="12" height="12" transform="rotate(0,418,394)"/><rect x="412" y="400" width="12" height="12" transform="rotate(0,418,406)"/><path d="M 412 412v 12h 12v -6a 6 6, 0, 0, 0, -6 -6" transform="rotate(90,418,418)"/><circle cx="418" cy="442" r="6" transform="rotate(0,418,442)"/><path d="M 412 460v 12h 6a 6 6, 0, 0, 0, 0 -12" transform="rotate(0,418,466)"/><path d="M 424 136v 12h 12v -6a 6 6, 0, 0, 0, -6 -6" transform="rotate(-90,430,142)"/><path d="M 424 148v 12h 12v -6a 6 6, 0, 0, 0, -6 -6" transform="rotate(180,430,154)"/><rect x="424" y="172" width="12" height="12" transform="rotate(0,430,178)"/><path d="M 424 184v 12h 6a 6 6, 0, 0, 0, 0 -12" transform="rotate(90,430,190)"/><path d="M 424 232v 12h 12v -6a 6 6, 0, 0, 0, -6 -6" transform="rotate(0,430,238)"/><path d="M 424 244v 12h 12v -6a 6 6, 0, 0, 0, -6 -6" transform="rotate(180,430,250)"/><path d="M 424 304v 12h 6a 6 6, 0, 0, 0, 0 -12" transform="rotate(0,430,310)"/><path d="M 424 352v 12h 12v -6a 6 6, 0, 0, 0, -6 -6" transform="rotate(0,430,358)"/><rect x="424" y="364" width="12" height="12" transform="rotate(0,430,370)"/><path d="M 424 388v 12h 6a 6 6, 0, 0, 0, 0 -12" transform="rotate(0,430,394)"/><circle cx="430" cy="454" r="6" transform="rotate(0,430,454)"/><rect x="436" y="136" width="12" height="12" transform="rotate(0,442,142)"/><path d="M 436 148v 12h 12v -6a 6 6, 0, 0, 0, -6 -6" transform="rotate(90,442,154)"/><path d="M 436 172v 12h 6a 6 6, 0, 0, 0, 0 -12" transform="rotate(0,442,178)"/><path d="M 436 208v 12h 12v -6a 6 6, 0, 0, 0, -6 -6" transform="rotate(-90,442,214)"/><path d="M 436 220v 12h 12v -6a 6 6, 0, 0, 0, -6 -6" transform="rotate(180,442,226)"/><rect x="436" y="244" width="12" height="12" transform="rotate(0,442,250)"/><path d="M 436 256v 12h 12v -6a 6 6, 0, 0, 0, -6 -6" transform="rotate(180,442,262)"/><circle cx="442" cy="298" r="6" transform="rotate(0,442,298)"/><circle cx="442" cy="346" r="6" transform="rotate(0,442,346)"/><rect x="436" y="364" width="12" height="12" transform="rotate(0,442,370)"/><path d="M 436 376v 12h 12v -6a 6 6, 0, 0, 0, -6 -6" transform="rotate(180,442,382)"/><circle cx="442" cy="406" r="6" transform="rotate(0,442,406)"/><circle cx="442" cy="442" r="6" transform="rotate(0,442,442)"/><path d="M 436 460v 12h 6a 6 6, 0, 0, 0, 0 -12" transform="rotate(180,442,466)"/><path d="M 448 124v 12h 6a 6 6, 0, 0, 0, 0 -12" transform="rotate(-90,454,130)"/><rect x="448" y="136" width="12" height="12" transform="rotate(0,454,142)"/><circle cx="454" cy="166" r="6" transform="rotate(0,454,166)"/><path d="M 448 196v 12h 12v -6a 6 6, 0, 0, 0, -6 -6" transform="rotate(-90,454,202)"/><rect x="448" y="208" width="12" height="12" transform="rotate(0,454,214)"/><rect x="448" y="220" width="12" height="12" transform="rotate(0,454,226)"/><path d="M 448 244v 12h 12v -6a 6 6, 0, 0, 0, -6 -6" transform="rotate(0,454,250)"/><rect x="448" y="256" width="12" height="12" transform="rotate(0,454,262)"/><path d="M 448 268v 12h 6a 6 6, 0, 0, 0, 0 -12" transform="rotate(90,454,274)"/><path d="M 448 352v 12h 6a 6 6, 0, 0, 0, 0 -12" transform="rotate(-90,454,358)"/><rect x="448" y="364" width="12" height="12" transform="rotate(0,454,370)"/><rect x="448" y="376" width="12" height="12" transform="rotate(0,454,382)"/><path d="M 448 412v 12h 6a 6 6, 0, 0, 0, 0 -12" transform="rotate(180,454,418)"/><rect x="448" y="460" width="12" height="12" transform="rotate(0,454,466)"/><path d="M 460 136v 12h 6a 6 6, 0, 0, 0, 0 -12" transform="rotate(0,466,142)"/><path d="M 460 196v 12h 6a 6 6, 0, 0, 0, 0 -12" transform="rotate(0,466,202)"/><path d="M 460 220v 12h 12v -6a 6 6, 0, 0, 0, -6 -6" transform="rotate(0,466,226)"/><path d="M 460 232v 12h 6a 6 6, 0, 0, 0, 0 -12" transform="rotate(90,466,238)"/><circle cx="466" cy="322" r="6" transform="rotate(0,466,322)"/><path d="M 460 364v 12h 12v -6a 6 6, 0, 0, 0, -6 -6" transform="rotate(0,466,370)"/><rect x="460" y="376" width="12" height="12" transform="rotate(0,466,382)"/><rect x="460" y="388" width="12" height="12" transform="rotate(0,466,394)"/><rect x="460" y="400" width="12" height="12" transform="rotate(0,466,406)"/><rect x="460" y="412" width="12" height="12" transform="rotate(0,466,418)"/><path d="M 460 424v 12h 6a 6 6, 0, 0, 0, 0 -12" transform="rotate(90,466,430)"/><path d="M 460 460v 12h 6a 6 6, 0, 0, 0, 0 -12" transform="rotate(0,466,466)"/><path clip-rule="evenodd" d="M 28 58v 24a 30 30, 0, 0, 0, 30 30h 24a 30 30, 0, 0, 0, 30 -30v -24a 30 30, 0, 0, 0, -30 -30h -24a 30 30, 0, 0, 0, -30 30M 58 40h 24a 18 18, 0, 0, 1, 18 18v 24a 18 18, 0, 0, 1, -18 18h -24a 18 18, 0, 0, 1, -18 -18v -24a 18 18, 0, 0, 1, 18 -18" transform="rotate(0,70,70)"/><circle cx="70" cy="70" r="18" transform="rotate(0,70,70)"/><path clip-rule="evenodd" d="M 388 58v 24a 30 30, 0, 0, 0, 30 30h 24a 30 30, 0, 0, 0, 30 -30v -24a 30 30, 0, 0, 0, -30 -30h -24a 30 30, 0, 0, 0, -30 30M 418 40h 24a 18 18, 0, 0, 1, 18 18v 24a 18 18, 0, 0, 1, -18 18h -24a 18 18, 0, 0, 1, -18 -18v -24a 18 18, 0, 0, 1, 18 -18" transform="rotate(90,430,70)"/><circle cx="430" cy="70" r="18" transform="rotate(90,430,70)"/><path clip-rule="evenodd" d="M 28 418v 24a 30 30, 0, 0, 0, 30 30h 24a 30 30, 0, 0, 0, 30 -30v -24a 30 30, 0, 0, 0, -30 -30h -24a 30 30, 0, 0, 0, -30 30M 58 400h 24a 18 18, 0, 0, 1, 18 18v 24a 18 18, 0, 0, 1, -18 18h -24a 18 18, 0, 0, 1, -18 -18v -24a 18 18, 0, 0, 1, 18 -18" transform="rotate(-90,70,430)"/><circle cx="70" cy="430" r="18" transform="rotate(-90,70,430)"/></clipPath></defs><rect x="0" y="0" height="500" width="500" clip-path="url('#clip-path-background-color')" fill="#fff"/><rect x="0" y="0" height="500" width="500" clip-path="url('#clip-path-dot-color')" fill="#000000"/></svg>